<svg width="55" height="55" viewBox="0 0 55 55" fill="none" xmlns="http://www.w3.org/2000/svg">
<circle cx="27.5" cy="27.5" r="27.5" fill="url(#paint0_linear)"/>
<path d="M50.2114 35.9644H50.1588V18.2474C50.1588 14.102 46.7863 10.7295 42.6409 10.7295H28.2886V9.65329C29.2654 9.32334 29.9709 8.3989 29.9709 7.31212C29.9709 5.94975 28.8625 4.84131 27.5 4.84131C26.1375 4.84131 25.0291 5.94975 25.0291 7.31223C25.0291 8.39901 25.7346 9.32345 26.7114 9.65339V10.7295H12.3591C8.2137 10.7295 4.84116 14.1019 4.84116 18.2474V35.9644H4.78859C4.35308 35.9644 4 36.3174 4 36.7529V37.5941C4 39.4204 5.48581 40.9062 7.31208 40.9062H22.4799C22.3647 42.4766 21.772 46.1363 18.811 48.5818H17.406C16.9705 48.5818 16.6175 48.9349 16.6175 49.3704C16.6175 49.8059 16.9705 50.159 17.406 50.159H19.0881C19.0884 50.159 19.0887 50.159 19.089 50.159C19.0892 50.159 19.0894 50.159 19.0896 50.159H35.9121C35.9123 50.159 35.9125 50.159 35.9127 50.159C35.913 50.159 35.9133 50.159 35.9136 50.159H37.594C38.0295 50.159 38.3826 49.8059 38.3826 49.3704C38.3826 48.9349 38.0295 48.5818 37.594 48.5818H36.1906C33.2426 46.1458 32.643 42.4787 32.5237 40.9062H47.6879C49.5142 40.9062 51 39.4204 51 37.5941V36.7529C51 36.3174 50.647 35.9644 50.2114 35.9644ZM27.5 6.41849C27.9928 6.41849 28.3937 6.81941 28.3937 7.31223C28.3937 7.80504 27.9928 8.20596 27.5 8.20596C27.0072 8.20596 26.6063 7.80504 26.6063 7.31223C26.6063 6.81941 27.0072 6.41849 27.5 6.41849ZM6.41834 18.2474C6.41834 14.9715 9.08336 12.3066 12.3591 12.3066H42.6409C45.9166 12.3066 48.5817 14.9716 48.5817 18.2474V35.9644H46.7942V18.2474C46.7942 15.9573 44.931 14.0941 42.6409 14.0941H12.3591C10.069 14.0941 8.20582 15.9572 8.20582 18.2474V35.9644H6.41834V18.2474ZM9.783 35.9644V34.1769H45.217V35.9644H9.783ZM9.783 24.9215C9.80056 24.9226 9.81801 24.9241 9.83557 24.9241C10.0427 24.9241 10.2467 24.84 10.3928 24.6928C10.54 24.5466 10.6242 24.3437 10.6242 24.1355C10.6242 23.9284 10.54 23.7244 10.3928 23.5782C10.2467 23.431 10.0427 23.3469 9.83557 23.3469C9.81801 23.3469 9.80056 23.3484 9.783 23.3495V21.5567C9.80045 21.5579 9.8178 21.5593 9.83557 21.5593C10.8457 21.5593 11.7511 21.1043 12.3591 20.389C12.967 21.1043 13.8724 21.5593 14.8826 21.5593C15.8927 21.5593 16.7981 21.1043 17.406 20.389C18.014 21.1043 18.9194 21.5593 19.9295 21.5593C20.9397 21.5593 21.8451 21.1043 22.453 20.389C23.061 21.1043 23.9664 21.5593 24.9765 21.5593C25.9866 21.5593 26.892 21.1043 27.5 20.389C28.108 21.1043 29.0134 21.5593 30.0235 21.5593C31.0336 21.5593 31.939 21.1043 32.547 20.389C33.1549 21.1043 34.0603 21.5593 35.0705 21.5593C36.0806 21.5593 36.986 21.1043 37.594 20.389C38.2019 21.1043 39.1073 21.5593 40.1175 21.5593C41.1276 21.5593 42.033 21.1043 42.6409 20.389C43.2489 21.1043 44.1543 21.5593 45.1644 21.5593C45.1822 21.5593 45.1995 21.5579 45.217 21.5567V23.3495C45.1994 23.3484 45.182 23.3469 45.1644 23.3469C44.9573 23.3469 44.7533 23.431 44.6072 23.5782C44.46 23.7244 44.3758 23.9284 44.3758 24.1355C44.3758 24.3437 44.46 24.5466 44.6072 24.6928C44.7533 24.84 44.9573 24.9241 45.1644 24.9241C45.182 24.9241 45.1995 24.9226 45.217 24.9215V28.3971C45.1954 28.3954 45.1739 28.3939 45.1518 28.3939C44.2818 28.3939 43.8022 28.7134 43.4518 28.9467C43.1728 29.1326 43.0189 29.235 42.6261 29.235C42.2335 29.235 42.0799 29.1326 41.8008 28.9467C41.4506 28.7134 40.9709 28.3939 40.101 28.3939C39.2312 28.3939 38.7516 28.7135 38.4014 28.9468C38.1224 29.1327 37.9688 29.235 37.5763 29.235C37.1847 29.235 37.0313 29.1327 36.753 28.9471C36.4031 28.7136 35.9238 28.3939 35.0545 28.3939C34.1846 28.3939 33.7051 28.7135 33.3548 28.9468C33.0759 29.1327 32.9222 29.235 32.5296 29.235C32.137 29.235 31.9834 29.1326 31.7045 28.9468C31.3542 28.7135 30.8746 28.3939 30.0048 28.3939C29.1351 28.3939 28.6555 28.7135 28.3055 28.9468C28.0268 29.1326 27.8733 29.235 27.4811 29.235C27.0893 29.235 26.9359 29.1327 26.6575 28.9469C26.3074 28.7135 25.8281 28.3939 24.9586 28.3939C24.089 28.3939 23.6094 28.7135 23.2593 28.9468C22.9805 29.1326 22.8269 29.235 22.4346 29.235C22.0432 29.235 21.8899 29.1327 21.6115 28.9471C21.2616 28.7136 20.7824 28.3939 19.913 28.3939C19.0435 28.3939 18.5641 28.7135 18.2141 28.9469C17.9354 29.1327 17.782 29.235 17.3901 29.235C16.9991 29.235 16.8459 29.1328 16.5679 28.9472C16.2181 28.7136 15.7392 28.3939 14.87 28.3939C14.0005 28.3939 13.5211 28.7135 13.1711 28.9469C12.8926 29.1327 12.7391 29.235 12.3472 29.235C11.9562 29.235 11.8031 29.1328 11.525 28.9472C11.1753 28.7137 10.6964 28.3939 9.82726 28.3939C9.81233 28.3939 9.79772 28.3953 9.783 28.3961V24.9215ZM45.217 19.9849C45.1995 19.9837 45.1822 19.9822 45.1644 19.9822C44.2078 19.9822 43.4295 19.204 43.4295 18.2474C43.4295 17.8118 43.0765 17.4588 42.6409 17.4588C42.2054 17.4588 41.8524 17.8118 41.8524 18.2474C41.8524 19.204 41.0741 19.9822 40.1175 19.9822C39.1608 19.9822 38.3826 19.204 38.3826 18.2474C38.3826 17.8118 38.0295 17.4588 37.594 17.4588C37.1584 17.4588 36.8054 17.8118 36.8054 18.2474C36.8054 19.204 36.0271 19.9822 35.0705 19.9822C34.1139 19.9822 33.3356 19.204 33.3356 18.2474C33.3356 17.8118 32.9825 17.4588 32.547 17.4588C32.1115 17.4588 31.7584 17.8118 31.7584 18.2474C31.7584 19.204 30.9801 19.9822 30.0235 19.9822C29.0669 19.9822 28.2886 19.204 28.2886 18.2474C28.2886 17.8118 27.9355 17.4588 27.5 17.4588C27.0645 17.4588 26.7114 17.8118 26.7114 18.2474C26.7114 19.204 25.9331 19.9822 24.9765 19.9822C24.0199 19.9822 23.2416 19.204 23.2416 18.2474C23.2416 17.8118 22.8885 17.4588 22.453 17.4588C22.0175 17.4588 21.6644 17.8118 21.6644 18.2474C21.6644 19.204 20.8861 19.9822 19.9295 19.9822C18.9729 19.9822 18.1946 19.204 18.1946 18.2474C18.1946 17.8118 17.8416 17.4588 17.406 17.4588C16.9705 17.4588 16.6175 17.8118 16.6175 18.2474C16.6175 19.204 15.8392 19.9822 14.8826 19.9822C13.9259 19.9822 13.1477 19.204 13.1477 18.2474C13.1477 17.8118 12.7946 17.4588 12.3591 17.4588C11.9235 17.4588 11.5705 17.8118 11.5705 18.2474C11.5705 19.204 10.7922 19.9822 9.83557 19.9822C9.8178 19.9822 9.80045 19.9837 9.783 19.9849V18.2474C9.783 16.8268 10.9387 15.6713 12.3591 15.6713H42.6409C44.0614 15.6713 45.217 16.8269 45.217 18.2474V19.9849ZM9.783 29.9689C9.79772 29.9697 9.81233 29.9711 9.82726 29.9711C10.2182 29.9711 10.3714 30.0733 10.6494 30.259C10.9991 30.4925 11.4782 30.8122 12.3472 30.8122C13.2167 30.8122 13.6961 30.4926 14.0461 30.2592C14.3246 30.0734 14.4782 29.9711 14.87 29.9711C15.2611 29.9711 15.4142 30.0734 15.6923 30.259C16.0421 30.4925 16.521 30.8122 17.3901 30.8122C18.2596 30.8122 18.7391 30.4926 19.0891 30.2592C19.3677 30.0734 19.5211 29.9711 19.9131 29.9711C20.3047 29.9711 20.458 30.0734 20.7363 30.2591C21.0862 30.4926 21.5655 30.8122 22.4347 30.8122C23.3044 30.8122 23.784 30.4926 24.1341 30.2593C24.4128 30.0735 24.5664 29.9711 24.9587 29.9711C25.3505 29.9711 25.5039 30.0734 25.7823 30.2592C26.1324 30.4926 26.6117 30.8122 27.4812 30.8122C28.3508 30.8122 28.8304 30.4926 29.1804 30.2593C29.4592 30.0735 29.6127 29.9711 30.0049 29.9711C30.3974 29.9711 30.551 30.0735 30.83 30.2593C31.1802 30.4926 31.6598 30.8122 32.5296 30.8122C33.3995 30.8122 33.8791 30.4926 34.2293 30.2593C34.5083 30.0734 34.6619 29.9711 35.0545 29.9711C35.446 29.9711 35.5995 30.0734 35.8778 30.2591C36.2277 30.4925 36.707 30.8122 37.5763 30.8122C38.4462 30.8122 38.9257 30.4926 39.276 30.2593C39.5549 30.0734 39.7085 29.9711 40.101 29.9711C40.4937 29.9711 40.6474 30.0735 40.9263 30.2594C41.2766 30.4927 41.7562 30.8122 42.6261 30.8122C43.4961 30.8122 43.9759 30.4927 44.3261 30.2594C44.6052 30.0735 44.759 29.9711 45.1518 29.9711C45.1738 29.9711 45.1954 29.9696 45.217 29.9678V32.5997H9.783V29.9689ZM33.9347 48.5818H21.067C23.4789 45.8248 23.97 42.4401 24.0637 40.9062H30.9378C31.0317 42.4401 31.5227 45.8248 33.9347 48.5818ZM49.4228 37.5941C49.4228 38.5507 48.6445 39.329 47.6879 39.329H7.31208C6.35547 39.329 5.57718 38.5507 5.57718 37.5941V37.5415H49.4228V37.5941Z" fill="black"/>
<path d="M28.0353 43.6874C28.2906 44.6422 28.6394 45.5464 29.072 46.3751C29.2127 46.6446 29.4873 46.7988 29.7717 46.7988C29.8947 46.7988 30.0195 46.77 30.1361 46.7091C30.5222 46.5076 30.6717 46.0311 30.4701 45.645C30.091 44.9188 29.7844 44.123 29.5589 43.2799C29.4464 42.8591 29.0141 42.6093 28.5934 42.7218C28.1726 42.8345 27.9228 43.2668 28.0353 43.6874Z" fill="black"/>
<path d="M14.8826 24.9239C15.0897 24.9239 15.2937 24.8397 15.4399 24.6925C15.5871 24.5464 15.6712 24.3424 15.6712 24.1353C15.6712 23.9281 15.5871 23.7242 15.4399 23.578C15.2937 23.4308 15.0897 23.3467 14.8826 23.3467C14.6754 23.3467 14.4715 23.4308 14.3253 23.578C14.1781 23.7242 14.094 23.9281 14.094 24.1353C14.094 24.3435 14.1781 24.5464 14.3253 24.6925C14.4715 24.8397 14.6754 24.9239 14.8826 24.9239Z" fill="black"/>
<path d="M19.9297 24.9239C20.1368 24.9239 20.3408 24.8397 20.487 24.6925C20.6342 24.5464 20.7183 24.3435 20.7183 24.1353C20.7183 23.9281 20.6342 23.7242 20.487 23.578C20.3408 23.4308 20.1368 23.3467 19.9297 23.3467C19.7226 23.3467 19.5186 23.4308 19.3724 23.578C19.2252 23.7242 19.1411 23.9281 19.1411 24.1353C19.1411 24.3424 19.2252 24.5464 19.3724 24.6925C19.5186 24.8397 19.7226 24.9239 19.9297 24.9239Z" fill="black"/>
<path d="M24.9763 24.9239C25.1835 24.9239 25.3875 24.8397 25.5336 24.6925C25.6808 24.5464 25.7649 24.3424 25.7649 24.1353C25.7649 23.9281 25.6808 23.7242 25.5336 23.578C25.3875 23.4308 25.1835 23.3467 24.9763 23.3467C24.7692 23.3467 24.5652 23.4308 24.4191 23.578C24.2719 23.7242 24.1877 23.9281 24.1877 24.1353C24.1877 24.3435 24.2719 24.5464 24.4191 24.6925C24.5652 24.8397 24.7692 24.9239 24.9763 24.9239Z" fill="black"/>
<path d="M30.0235 24.9239C30.2306 24.9239 30.4346 24.8397 30.5807 24.6925C30.7279 24.5464 30.8121 24.3435 30.8121 24.1353C30.8121 23.9281 30.7279 23.7242 30.5807 23.578C30.4346 23.4308 30.2306 23.3467 30.0235 23.3467C29.8163 23.3467 29.6123 23.4308 29.4662 23.578C29.319 23.7242 29.2349 23.9281 29.2349 24.1353C29.2349 24.3424 29.319 24.5464 29.4662 24.6925C29.6123 24.8397 29.8163 24.9239 30.0235 24.9239Z" fill="black"/>
<path d="M35.0706 24.9239C35.2777 24.9239 35.4817 24.8397 35.6278 24.6925C35.775 24.5464 35.8592 24.3424 35.8592 24.1353C35.8592 23.9281 35.775 23.7242 35.6278 23.578C35.4817 23.4308 35.2777 23.3467 35.0706 23.3467C34.8634 23.3467 34.6595 23.4308 34.5133 23.578C34.3661 23.7242 34.282 23.9281 34.282 24.1353C34.282 24.3424 34.3661 24.5464 34.5133 24.6925C34.6595 24.8397 34.8634 24.9239 35.0706 24.9239Z" fill="black"/>
<path d="M40.1174 24.9239C40.3246 24.9239 40.5286 24.8397 40.6747 24.6925C40.8219 24.5464 40.906 24.3424 40.906 24.1353C40.906 23.9281 40.8219 23.7242 40.6747 23.578C40.5286 23.4308 40.3256 23.3467 40.1174 23.3467C39.9103 23.3467 39.7063 23.4308 39.5602 23.578C39.413 23.7242 39.3289 23.9281 39.3289 24.1353C39.3289 24.3424 39.413 24.5464 39.5602 24.6925C39.7063 24.8397 39.9103 24.9239 40.1174 24.9239Z" fill="black"/>
<defs>
<linearGradient id="paint0_linear" x1="27.5" y1="0" x2="27.5" y2="55" gradientUnits="userSpaceOnUse">
<stop stop-color="#FFC2E0"/>
<stop offset="1" stop-color="#EACAF9"/>
</linearGradient>
</defs>
</svg>
