<svg width="155" height="147" viewBox="0 0 155 147" fill="none" xmlns="http://www.w3.org/2000/svg">
<path fill-rule="evenodd" clip-rule="evenodd" d="M119.611 34.6282C119.611 33.5185 118.712 32.6189 117.602 32.6189H111.581V28.4114L111.962 28.318C116.348 27.2426 119.611 23.2791 119.611 18.5687C119.611 17.2217 119.213 14.5694 115.325 7.86774C113.301 4.37837 111.307 1.48496 111.225 1.36709C110.85 0.824177 110.232 0.5 109.572 0.5C108.912 0.5 108.294 0.824175 107.919 1.36709C107.838 1.48497 105.843 4.37836 103.819 7.86775C99.9318 14.5694 99.5332 17.2217 99.5332 18.5687C99.5332 23.2791 102.796 27.2422 107.182 28.318L107.563 28.4114V32.6189H101.542C100.433 32.6189 99.5332 33.5185 99.5332 34.6282V59.3846H87.4923V34.6282C87.4923 33.5185 86.5927 32.6189 85.483 32.6189H79.4626V28.4114L79.8435 28.318C84.2291 27.2426 87.4923 23.2791 87.4923 18.5687C87.4923 17.2217 87.0936 14.5694 83.206 7.86772C81.1821 4.37835 79.1879 1.48496 79.1065 1.36709C78.7315 0.824175 78.1135 0.5 77.4533 0.5C76.7932 0.5 76.1751 0.824177 75.8001 1.36709C75.7187 1.48496 73.7245 4.37837 71.7006 7.86774C67.813 14.5694 67.4143 17.2217 67.4143 18.5687C67.4143 23.2791 70.6775 27.2422 75.0631 28.318L75.444 28.4114V32.6189H69.4236C68.3139 32.6189 67.4143 33.5185 67.4143 34.6282V59.3846H55.3734V34.6282C55.3734 33.5185 54.4738 32.6189 53.3642 32.6189H47.3437V28.4114L47.7246 28.318C52.1102 27.2426 55.3734 23.2791 55.3734 18.5687C55.3734 17.2217 54.9748 14.5694 51.0872 7.86774C49.0637 4.37909 47.0698 1.48615 46.9877 1.36716C46.6127 0.824205 45.9946 0.5 45.3344 0.5C44.6742 0.5 44.0562 0.824205 43.6812 1.36716C43.5991 1.48615 41.6052 4.37907 39.5817 7.86772C35.6941 14.5694 35.2954 17.2217 35.2954 18.5687C35.2954 23.2791 38.5587 27.2422 42.9443 28.318L43.3252 28.4114V32.6189H37.3047C36.1951 32.6189 35.2954 33.5185 35.2954 34.6282V59.3846H13.2156C6.20475 59.3846 0.5 65.0893 0.5 72.1002V144.368C0.5 145.477 1.39964 146.377 2.50929 146.377H152.397C153.507 146.377 154.407 145.477 154.407 144.368V72.1002C154.407 65.0893 148.702 59.3846 141.691 59.3846H119.611V34.6282ZM109.572 6.13158L109.996 6.80377C111.466 9.13886 112.855 11.5715 113.879 13.6559C114.391 14.6977 114.815 15.6598 115.112 16.4838C115.404 17.2934 115.593 18.0192 115.593 18.5687C115.593 20.9048 114.253 22.9275 112.31 23.9244L111.581 24.298V18.5687C111.581 17.4591 110.682 16.5594 109.572 16.5594C108.463 16.5594 107.563 17.4591 107.563 18.5687V24.2984L106.835 23.9247C104.891 22.9274 103.552 20.9048 103.552 18.5687C103.552 18.0198 103.74 17.2944 104.032 16.4852C104.33 15.6615 104.754 14.6994 105.266 13.6576C106.29 11.5732 107.679 9.13991 109.149 6.80385L109.572 6.13158ZM77.4536 6.13158L77.8768 6.80377C79.347 9.13886 80.7363 11.5715 81.7602 13.6559C82.2719 14.6977 82.6959 15.6598 82.9932 16.4838C83.2852 17.2934 83.4737 18.0192 83.4737 18.5687C83.4737 20.9048 82.1345 22.9275 80.1908 23.9244L79.4626 24.298V18.5687C79.4626 17.4591 78.563 16.5594 77.4533 16.5594C76.3437 16.5594 75.444 17.4591 75.444 18.5687V24.298L74.7158 23.9244C72.7721 22.9275 71.4329 20.9048 71.4329 18.5687C71.4329 18.0198 71.6215 17.2944 71.9136 16.4852C72.2109 15.6615 72.635 14.6994 73.1468 13.6576C74.1708 11.5732 75.5603 9.13991 77.0305 6.80385L77.4536 6.13158ZM45.3347 6.13158L45.7579 6.80377C47.2281 9.13886 48.6174 11.5715 49.6413 13.6559C50.153 14.6977 50.577 15.6598 50.8743 16.4838C51.1664 17.2934 51.3549 18.0192 51.3549 18.5687C51.3549 20.9048 50.0156 22.9275 48.0719 23.9244L47.3437 24.298V18.5687C47.3437 17.4591 46.4441 16.5594 45.3344 16.5594C44.2248 16.5594 43.3252 17.4591 43.3252 18.5687V24.298L42.597 23.9244C40.6533 22.9275 39.314 20.9048 39.314 18.5687C39.314 18.0198 39.5026 17.2944 39.7947 16.4852C40.092 15.6615 40.5162 14.6994 41.0279 13.6576C42.0519 11.5732 43.4414 9.13991 44.9116 6.80385L45.3347 6.13158ZM13.2156 78.143L13.5966 78.5912C15.4406 80.7609 18.1847 82.1392 21.2453 82.1392C24.3059 82.1392 27.05 80.7609 28.894 78.5912L29.275 78.143L29.656 78.5912C31.5 80.7609 34.2441 82.1392 37.3047 82.1392C40.3654 82.1392 43.1094 80.7609 44.9535 78.5912L45.3344 78.143L45.7154 78.5912C47.5595 80.7609 50.3035 82.1392 53.3642 82.1392C56.4248 82.1392 59.1688 80.7609 61.0129 78.5912L61.3939 78.143L61.7749 78.5912C63.6189 80.7609 66.363 82.1392 69.4236 82.1392C72.4842 82.1392 75.2283 80.7609 77.0723 78.5912L77.4533 78.143L77.8343 78.5912C79.6783 80.7609 82.4224 82.1392 85.483 82.1392C88.5437 82.1392 91.2877 80.7609 93.1318 78.5912L93.5127 78.143L93.8937 78.5912C95.7378 80.7609 98.4818 82.1392 101.542 82.1392C104.603 82.1392 107.347 80.7609 109.191 78.5912L109.572 78.143L109.953 78.5912C111.797 80.7609 114.541 82.1392 117.602 82.1392C120.663 82.1392 123.407 80.7609 125.251 78.5912L125.632 78.143L126.013 78.5912C127.857 80.7609 130.601 82.1392 133.661 82.1392C136.722 82.1392 139.466 80.7609 141.31 78.5912L141.691 78.143L142.072 78.5912C143.916 80.7609 146.66 82.1392 149.721 82.1392C149.756 82.1392 149.787 82.1364 149.855 82.1319L150.388 82.0966V88.8693L149.855 88.8342C149.822 88.832 149.798 88.8302 149.778 88.829C149.756 88.8276 149.739 88.8269 149.721 88.8269C149.194 88.8269 148.673 89.0422 148.302 89.4152L148.3 89.4178C147.927 89.7883 147.711 90.3061 147.711 90.8362C147.711 91.3662 147.927 91.884 148.3 92.2546L148.302 92.2571C148.673 92.6301 149.194 92.8455 149.721 92.8455C149.726 92.8455 149.732 92.8454 149.737 92.8453C149.741 92.8452 149.744 92.845 149.748 92.8449C149.755 92.8446 149.762 92.8443 149.77 92.8438L149.802 92.8418L149.855 92.8382L150.388 92.8029V107.606L149.855 107.57C149.787 107.566 149.756 107.563 149.721 107.563C147.101 107.563 145.675 108.511 144.584 109.237L144.583 109.238L144.558 109.255C144.133 109.537 143.749 109.792 143.31 109.967C142.847 110.152 142.345 110.24 141.671 110.24C140.997 110.24 140.495 110.152 140.032 109.967C139.592 109.792 139.209 109.537 138.784 109.254L138.759 109.238L138.758 109.237C137.667 108.511 136.241 107.563 133.622 107.563C131.005 107.563 129.581 108.512 128.491 109.238L128.489 109.239L128.465 109.255C128.041 109.538 127.658 109.792 127.219 109.967C126.758 110.152 126.257 110.24 125.585 110.24C124.913 110.24 124.412 110.152 123.951 109.967C123.512 109.792 123.13 109.538 122.706 109.255L122.681 109.238L122.68 109.238C121.591 108.512 120.167 107.563 117.55 107.563C114.934 107.563 113.511 108.512 112.421 109.238L112.419 109.239L112.394 109.255C111.97 109.538 111.588 109.793 111.15 109.967C110.688 110.152 110.188 110.24 109.516 110.24C108.846 110.24 108.347 110.152 107.886 109.967C107.448 109.793 107.067 109.538 106.644 109.256L106.619 109.239L106.618 109.238C105.529 108.512 104.106 107.563 101.492 107.563C98.8761 107.563 97.4525 108.512 96.3628 109.238L96.3608 109.239L96.3362 109.255C95.9122 109.538 95.53 109.793 95.0916 109.967C94.63 110.152 94.1298 110.24 93.4579 110.24C92.7858 110.24 92.2856 110.152 91.8241 109.967C91.3862 109.793 91.0043 109.538 90.581 109.256L90.5549 109.239L90.5529 109.238C89.4632 108.512 88.0396 107.563 85.4238 107.563C82.8086 107.563 81.3853 108.512 80.2959 109.238L80.2681 109.256C79.8451 109.538 79.4634 109.793 79.0259 109.967C78.5647 110.152 78.0648 110.24 77.3934 110.24C76.7227 110.24 76.2232 110.152 75.7623 109.967C75.3246 109.793 74.943 109.538 74.5199 109.255L74.4953 109.239L74.4944 109.238C73.4053 108.512 71.9823 107.563 69.367 107.563C66.7515 107.563 65.3279 108.512 64.2384 109.238L64.237 109.239L64.2116 109.256C63.7883 109.538 63.4064 109.792 62.9686 109.967C62.5072 110.152 62.0072 110.24 61.3357 110.24C60.6654 110.24 60.1662 110.152 59.7056 109.967C59.2685 109.793 58.8872 109.538 58.4646 109.256L58.4391 109.239L58.4378 109.238C57.349 108.512 55.9265 107.563 53.312 107.563C50.6964 107.563 49.2734 108.512 48.1843 109.238L48.1833 109.239L48.158 109.256C47.7349 109.538 47.3532 109.793 46.9157 109.967C46.4546 110.152 45.955 110.24 45.2839 110.24C44.6144 110.24 44.1157 110.152 43.6554 109.967C43.2188 109.793 42.8379 109.538 42.4159 109.257L42.3903 109.24L42.3891 109.239C41.3007 108.512 39.8791 107.563 37.2652 107.563C34.6496 107.563 33.2267 108.512 32.1376 109.238L32.1367 109.239L32.1123 109.255C31.6889 109.538 31.307 109.793 30.8691 109.967C30.408 110.152 29.9084 110.24 29.2375 110.24C28.568 110.24 28.0693 110.152 27.6091 109.967C27.1725 109.793 26.7916 109.538 26.3695 109.257L26.3421 109.238C25.2537 108.512 23.8323 107.563 21.2189 107.563C18.6057 107.563 17.1845 108.513 16.0967 109.24L16.0699 109.257C15.6485 109.539 15.2682 109.793 14.8324 109.967C14.3726 110.151 13.8746 110.239 13.2059 110.239C12.536 110.239 12.0372 110.151 11.5768 109.967C11.1402 109.792 10.7593 109.538 10.3372 109.257L10.3113 109.239L10.31 109.238C9.22191 108.512 7.79972 107.563 5.18586 107.563C5.158 107.563 5.13261 107.565 5.08925 107.568L5.05163 107.57L4.51857 107.605V92.8027L5.05144 92.8378L5.08991 92.8404C5.13325 92.8434 5.15858 92.8451 5.18586 92.8451C5.71294 92.8451 6.23393 92.6298 6.60427 92.2568L6.60679 92.2542C6.98006 91.8837 7.19514 91.3659 7.19514 90.8358C7.19514 90.3088 6.97981 89.7878 6.6068 89.4174L6.60426 89.4149C6.23392 89.0419 5.71293 88.8265 5.18586 88.8265C5.1587 88.8265 5.13351 88.8283 5.09047 88.8312L5.05144 88.8338L4.51857 88.8689V82.0962L5.05163 82.1316L5.08925 82.1341C5.13261 82.1371 5.158 82.1388 5.18591 82.1388C8.24651 82.1391 10.9905 80.7609 12.8346 78.5912L13.2156 78.143ZM150.388 118.312L149.855 118.277C149.787 118.272 149.756 118.27 149.721 118.27C147.101 118.27 145.675 119.218 144.584 119.943L144.583 119.944L144.558 119.961C144.133 120.244 143.749 120.499 143.31 120.673C142.847 120.858 142.345 120.946 141.671 120.946C140.997 120.946 140.495 120.858 140.032 120.673C139.592 120.498 139.209 120.244 138.784 119.961L138.759 119.944L138.758 119.943C137.667 119.218 136.241 118.27 133.622 118.27C131.005 118.27 129.581 119.218 128.491 119.944L128.489 119.945L128.465 119.961C128.041 120.244 127.658 120.499 127.219 120.674C126.758 120.858 126.257 120.946 125.585 120.946C124.913 120.946 124.412 120.858 123.951 120.674C123.512 120.499 123.13 120.244 122.706 119.961L122.681 119.945L122.68 119.944C121.591 119.218 120.167 118.27 117.55 118.27C114.934 118.27 113.511 119.218 112.421 119.944L112.419 119.945L112.394 119.962C111.97 120.244 111.588 120.499 111.15 120.674C110.688 120.858 110.188 120.946 109.516 120.946C108.846 120.946 108.347 120.858 107.886 120.674C107.448 120.499 107.067 120.244 106.644 119.962L106.619 119.946L106.618 119.945C105.529 119.218 104.106 118.27 101.492 118.27C98.8761 118.27 97.4525 119.218 96.3628 119.944L96.3608 119.945L96.3362 119.962C95.9122 120.244 95.53 120.499 95.0916 120.674C94.63 120.858 94.1298 120.946 93.4579 120.946C92.7858 120.946 92.2856 120.858 91.8241 120.674C91.3862 120.499 91.0043 120.245 90.581 119.963L90.5549 119.945L90.5529 119.944C89.4632 119.218 88.0396 118.27 85.4238 118.27C82.8086 118.27 81.3853 119.218 80.2959 119.944L80.2681 119.962C79.8451 120.244 79.4634 120.499 79.0259 120.674C78.5647 120.858 78.0648 120.946 77.3934 120.946C76.7227 120.946 76.2232 120.858 75.7623 120.674C75.3246 120.499 74.943 120.244 74.5199 119.962L74.4953 119.945L74.4944 119.945C73.4053 119.218 71.9823 118.27 69.367 118.27C66.7515 118.27 65.3279 119.218 64.2384 119.944L64.237 119.945L64.2116 119.962C63.7883 120.244 63.4064 120.499 62.9686 120.674C62.5072 120.858 62.0072 120.946 61.3357 120.946C60.6654 120.946 60.1662 120.858 59.7056 120.674C59.2685 120.499 58.8872 120.245 58.4646 119.963L58.4391 119.946L58.4378 119.945C57.349 119.218 55.9265 118.27 53.312 118.27C50.6964 118.27 49.2734 119.218 48.1843 119.945L48.1833 119.945L48.158 119.962C47.7349 120.244 47.3532 120.499 46.9157 120.674C46.4546 120.858 45.955 120.946 45.2839 120.946C44.6144 120.946 44.1157 120.858 43.6554 120.674C43.2188 120.499 42.8379 120.245 42.4159 119.963L42.3903 119.946L42.3891 119.945C41.3007 119.218 39.8791 118.27 37.2652 118.27C34.6496 118.27 33.2267 119.218 32.1376 119.945L32.1366 119.945L32.1123 119.962C31.6889 120.244 31.307 120.499 30.8691 120.674C30.408 120.858 29.9084 120.946 29.2375 120.946C28.568 120.946 28.0693 120.858 27.6091 120.674C27.1725 120.499 26.7916 120.245 26.3695 119.963L26.3439 119.946L26.3421 119.945C25.2537 119.218 23.8323 118.269 21.2189 118.269C18.6057 118.269 17.184 119.219 16.0962 119.946L16.0699 119.964C15.6486 120.245 15.2682 120.499 14.8324 120.674C14.3726 120.858 13.8746 120.946 13.2059 120.946C12.536 120.946 12.0372 120.858 11.5768 120.673C11.1402 120.499 10.7593 120.245 10.3372 119.963L10.3113 119.946L10.31 119.945C9.22191 119.218 7.79972 118.269 5.18586 118.269C5.158 118.269 5.13261 118.271 5.08925 118.274L5.05163 118.276L4.51857 118.312V111.539L5.05163 111.574L5.08925 111.577C5.13261 111.58 5.158 111.581 5.18586 111.581C5.8557 111.581 6.35452 111.67 6.81491 111.854C7.25153 112.028 7.63246 112.283 8.05451 112.564L8.08041 112.582L8.08129 112.582C9.16974 113.309 10.5916 114.258 13.2059 114.258C15.8191 114.258 17.2407 113.308 18.3286 112.581L18.3548 112.563C18.7762 112.282 19.1565 112.028 19.5923 111.854C20.0521 111.67 20.5501 111.581 21.2189 111.581C21.8884 111.581 22.3871 111.67 22.8473 111.854C23.2839 112.028 23.6648 112.283 24.0869 112.565L24.1136 112.582C25.2021 113.309 26.6236 114.258 29.2372 114.258C31.8528 114.258 33.2757 113.309 34.3648 112.583L34.3902 112.566C34.8136 112.283 35.1955 112.029 35.6333 111.854C36.0944 111.67 36.594 111.581 37.2649 111.581C37.9346 111.581 38.4333 111.67 38.8936 111.854C39.3298 112.028 39.7105 112.282 40.1323 112.564L40.1589 112.582L40.16 112.582C41.2485 113.309 42.67 114.258 45.2836 114.258C47.8995 114.258 49.3234 113.308 50.4125 112.582L50.4379 112.565C50.861 112.283 51.2427 112.029 51.6802 111.854C52.1413 111.67 52.6409 111.581 53.312 111.581C53.9824 111.581 54.4816 111.67 54.9423 111.854C55.3795 112.029 55.7608 112.283 56.1833 112.565L56.2089 112.582C57.2977 113.309 58.7204 114.258 61.3357 114.258C63.9512 114.258 65.3748 113.309 66.4643 112.583L66.4657 112.582L66.4911 112.566C66.9144 112.283 67.2963 112.029 67.7341 111.854C68.1955 111.67 68.6955 111.581 69.367 111.581C70.0378 111.581 70.5372 111.67 70.9982 111.854C71.4358 112.029 71.8175 112.283 72.2406 112.566L72.2653 112.582L72.2661 112.583C73.3552 113.309 74.7782 114.258 77.3934 114.258C80.0094 114.258 81.433 113.309 82.5222 112.583L82.5231 112.582L82.5492 112.565C82.9722 112.283 83.3538 112.029 83.7913 111.854C84.2525 111.67 84.7524 111.581 85.4238 111.581C86.0957 111.581 86.5958 111.67 87.0573 111.854C87.4951 112.029 87.877 112.283 88.3004 112.565L88.3264 112.582L88.3284 112.584C89.4182 113.31 90.8417 114.258 93.4575 114.258C96.0733 114.258 97.4969 113.31 98.5867 112.584L98.5887 112.582L98.6133 112.566C99.0373 112.283 99.4195 112.029 99.8578 111.854C100.319 111.67 100.82 111.581 101.492 111.581C102.162 111.581 102.661 111.67 103.122 111.854C103.56 112.029 103.941 112.283 104.364 112.565L104.389 112.582L104.39 112.583C105.479 113.309 106.901 114.258 109.516 114.258C112.132 114.258 113.555 113.31 114.645 112.584L114.647 112.582L114.672 112.566C115.096 112.283 115.478 112.029 115.916 111.854C116.378 111.67 116.878 111.581 117.55 111.581C118.222 111.581 118.722 111.67 119.184 111.854C119.622 112.029 120.004 112.284 120.428 112.566L120.454 112.583C121.544 113.309 122.968 114.258 125.584 114.258C128.202 114.258 129.627 113.309 130.717 112.583L130.741 112.566C131.165 112.284 131.548 112.029 131.986 111.854C132.448 111.67 132.949 111.581 133.621 111.581C134.296 111.581 134.797 111.67 135.26 111.854C135.7 112.029 136.083 112.284 136.508 112.567L136.533 112.584L136.534 112.584C137.625 113.31 139.051 114.258 141.671 114.258C144.291 114.258 145.717 113.309 146.808 112.583L146.834 112.567C147.259 112.284 147.642 112.029 148.082 111.854C148.545 111.67 149.046 111.581 149.72 111.581C149.748 111.581 149.774 111.58 149.817 111.577L149.855 111.574L150.388 111.539L150.388 118.312ZM4.51857 122.245L5.05163 122.28L5.08925 122.283C5.13261 122.286 5.158 122.288 5.18586 122.288C5.8557 122.288 6.35452 122.376 6.81491 122.56C7.25154 122.735 7.63247 122.989 8.05452 123.271L8.08041 123.288L8.08129 123.288C9.16974 124.015 10.5916 124.964 13.2059 124.964C15.8191 124.964 17.2403 124.015 18.3281 123.288L18.3548 123.27C18.7762 122.988 19.1565 122.734 19.5923 122.56C20.0521 122.376 20.5501 122.288 21.2189 122.288C21.8884 122.288 22.3871 122.376 22.8473 122.56C23.2839 122.735 23.6649 122.989 24.0869 123.271L24.1136 123.289C25.2021 124.015 26.6236 124.964 29.2372 124.964C31.8528 124.964 33.2757 124.015 34.3648 123.289L34.3657 123.289L34.3901 123.272C34.8135 122.99 35.1954 122.735 35.6333 122.56C36.0944 122.376 36.594 122.288 37.2649 122.288C37.9346 122.288 38.4333 122.376 38.8936 122.56C39.3298 122.735 39.7105 122.989 40.1323 123.27L40.16 123.289C41.2485 124.015 42.67 124.964 45.2836 124.964C47.8995 124.964 49.3228 124.015 50.412 123.289L50.4378 123.272C50.861 122.989 51.2427 122.735 51.6802 122.56C52.1413 122.376 52.6409 122.288 53.312 122.288C53.9824 122.288 54.4816 122.376 54.9423 122.56C55.3795 122.735 55.7607 122.989 56.1833 123.271L56.2089 123.288C57.2977 124.015 58.7204 124.964 61.3357 124.964C63.9512 124.964 65.3748 124.016 66.4643 123.29L66.4657 123.289L66.491 123.272C66.9143 122.99 67.2962 122.735 67.7341 122.56C68.1955 122.376 68.6955 122.288 69.367 122.288C70.0378 122.288 70.5372 122.376 70.9982 122.56C71.4358 122.735 71.8175 122.99 72.2407 123.272L72.2653 123.289L72.2661 123.289C73.3552 124.015 74.7782 124.964 77.3934 124.964C80.0094 124.964 81.433 124.015 82.5222 123.289L82.5231 123.289L82.5492 123.271C82.9722 122.989 83.3538 122.735 83.7913 122.56C84.2525 122.376 84.7524 122.288 85.4238 122.288C86.0957 122.288 86.5958 122.376 87.0573 122.56C87.4951 122.735 87.877 122.989 88.3004 123.271L88.3264 123.289L88.3284 123.29C89.4182 124.016 90.8417 124.964 93.4575 124.964C96.0733 124.964 97.4969 124.016 98.5867 123.29L98.5887 123.289L98.6133 123.272C99.0372 122.99 99.4195 122.735 99.8578 122.56C100.319 122.376 100.82 122.288 101.492 122.288C102.162 122.288 102.661 122.376 103.122 122.56C103.56 122.735 103.941 122.989 104.364 123.272L104.389 123.288L104.39 123.289C105.479 124.015 106.901 124.964 109.516 124.964C112.132 124.964 113.555 124.016 114.645 123.29L114.647 123.289L114.672 123.272C115.096 122.99 115.478 122.735 115.916 122.56C116.378 122.376 116.878 122.288 117.55 122.288C118.222 122.288 118.722 122.376 119.184 122.56C119.622 122.735 120.004 122.99 120.428 123.272L120.453 123.289L120.454 123.29C121.544 124.016 122.968 124.964 125.584 124.964C128.202 124.964 129.627 124.015 130.717 123.289L130.741 123.273C131.165 122.99 131.548 122.735 131.986 122.56C132.448 122.376 132.949 122.288 133.621 122.288C134.296 122.288 134.797 122.376 135.26 122.56C135.7 122.735 136.083 122.99 136.508 123.273L136.533 123.29L136.534 123.29C137.625 124.016 139.051 124.964 141.671 124.964C144.291 124.964 145.717 124.015 146.808 123.29L146.834 123.273C147.259 122.99 147.642 122.735 148.082 122.56C148.545 122.376 149.046 122.288 149.72 122.288C149.755 122.288 149.787 122.285 149.855 122.28L150.388 122.245V131.652H4.51857V122.245ZM150.388 78.1632L149.855 78.1279L149.817 78.1253L149.776 78.1226C149.755 78.1213 149.739 78.1206 149.721 78.1206C146.401 78.1206 143.7 75.4202 143.7 72.1002C143.7 70.9905 142.801 70.0909 141.691 70.0909C140.581 70.0909 139.682 70.9905 139.682 72.1002C139.682 75.4202 136.981 78.1206 133.661 78.1206C130.341 78.1206 127.641 75.4202 127.641 72.1002C127.641 70.9905 126.741 70.0909 125.632 70.0909C124.522 70.0909 123.622 70.9905 123.622 72.1002C123.622 75.4202 120.922 78.1206 117.602 78.1206C114.282 78.1206 111.581 75.4202 111.581 72.1002C111.581 70.9905 110.682 70.0909 109.572 70.0909C108.463 70.0909 107.563 70.9905 107.563 72.1002C107.563 75.4202 104.863 78.1206 101.542 78.1206C98.2224 78.1206 95.522 75.4202 95.522 72.1002C95.522 70.9905 94.6224 70.0909 93.5127 70.0909C92.4031 70.0909 91.5034 70.9905 91.5034 72.1002C91.5034 75.4202 88.8031 78.1206 85.483 78.1206C82.1629 78.1206 79.4626 75.4202 79.4626 72.1002C79.4626 70.9905 78.563 70.0909 77.4533 70.0909C76.3437 70.0909 75.444 70.9905 75.444 72.1002C75.444 75.4202 72.7437 78.1206 69.4236 78.1206C66.1035 78.1206 63.4032 75.4202 63.4032 72.1002C63.4032 70.9905 62.5035 70.0909 61.3939 70.0909C60.2842 70.0909 59.3846 70.9905 59.3846 72.1002C59.3846 75.4202 56.6842 78.1206 53.3642 78.1206C50.0441 78.1206 47.3437 75.4202 47.3437 72.1002C47.3437 70.9905 46.4441 70.0909 45.3344 70.0909C44.2248 70.0909 43.3252 70.9905 43.3252 72.1002C43.3252 75.4202 40.6248 78.1206 37.3047 78.1206C33.9846 78.1206 31.2843 75.4202 31.2843 72.1002C31.2843 70.9905 30.3847 70.0909 29.275 70.0909C28.1654 70.0909 27.2657 70.9905 27.2657 72.1002C27.2657 75.4202 24.5654 78.1206 21.2453 78.1206C17.9252 78.1206 15.2249 75.4202 15.2249 72.1002C15.2249 70.9905 14.3252 70.0909 13.2156 70.0909C12.1059 70.0909 11.2063 70.9905 11.2063 72.1002C11.2063 75.4202 8.50593 78.1206 5.18586 78.1206C5.158 78.1206 5.13261 78.1223 5.08925 78.1253L5.05163 78.1279L4.51857 78.1632V72.1002C4.51857 67.3043 8.41971 63.4032 13.2156 63.4032H141.691C146.487 63.4032 150.388 67.3043 150.388 72.1002V78.1632ZM103.552 36.6374H115.593V59.3846H103.552V36.6374ZM71.4329 36.6374H83.4737V59.3846H71.4329V36.6374ZM39.314 36.6374H51.3549V59.3846H39.314V36.6374ZM4.51857 142.358V135.671H150.388V142.358H4.51857Z" fill="black"/>
<path d="M69.4236 93.3457C70.0827 93.3457 70.7318 93.0781 71.1968 92.6097C71.6652 92.1446 71.9329 91.4955 71.9329 90.8364C71.9329 90.1773 71.6652 89.5283 71.1968 89.0632C70.7318 88.5948 70.0827 88.3271 69.4236 88.3271C68.7611 88.3271 68.1154 88.5948 67.6504 89.0632C67.182 89.5283 66.9143 90.174 66.9143 90.8364C66.9143 91.4989 67.182 92.1446 67.6504 92.6097C68.1154 93.0781 68.7645 93.3457 69.4236 93.3457Z" fill="black"/>
<path d="M85.4829 93.3457C86.142 93.3457 86.7911 93.0781 87.2561 92.6097C87.7245 92.1446 87.9922 91.4989 87.9922 90.8364C87.9922 90.1773 87.7245 89.5283 87.2561 89.0632C86.7911 88.5948 86.142 88.3271 85.4829 88.3271C84.8205 88.3271 84.1747 88.5948 83.7097 89.0632C83.2413 89.5283 82.9736 90.1773 82.9736 90.8364C82.9736 91.4989 83.2413 92.1446 83.7097 92.6097C84.1747 93.0781 84.8238 93.3457 85.4829 93.3457Z" fill="black"/>
<path d="M101.542 93.3457C102.202 93.3457 102.851 93.0781 103.316 92.6097C103.784 92.1446 104.052 91.4989 104.052 90.8364C104.052 90.174 103.784 89.5283 103.316 89.0632C102.851 88.5948 102.202 88.3271 101.542 88.3271C100.88 88.3271 100.234 88.5948 99.7693 89.0632C99.3009 89.5283 99.0332 90.1773 99.0332 90.8364C99.0332 91.4989 99.3009 92.1446 99.7693 92.6097C100.234 93.0781 100.883 93.3457 101.542 93.3457Z" fill="black"/>
<path d="M133.661 93.3457C134.32 93.3457 134.969 93.0781 135.434 92.6097C135.903 92.1446 136.171 91.4989 136.171 90.8364C136.171 90.1773 135.903 89.5283 135.434 89.0632C134.969 88.5948 134.324 88.3271 133.661 88.3271C132.999 88.3271 132.353 88.5948 131.888 89.0632C131.42 89.5283 131.152 90.174 131.152 90.8364C131.152 91.4989 131.42 92.1446 131.888 92.6097C132.353 93.0781 133.002 93.3457 133.661 93.3457Z" fill="black"/>
<path d="M117.602 93.3457C118.261 93.3457 118.91 93.0781 119.375 92.6097C119.843 92.1446 120.111 91.4989 120.111 90.8364C120.111 90.1773 119.843 89.5283 119.375 89.0632C118.91 88.5948 118.264 88.3271 117.602 88.3271C116.939 88.3271 116.294 88.5948 115.829 89.0632C115.36 89.5283 115.093 90.1773 115.093 90.8364C115.093 91.4955 115.36 92.1446 115.829 92.6097C116.294 93.0781 116.943 93.3457 117.602 93.3457Z" fill="black"/>
<path d="M53.364 93.3457C54.0231 93.3457 54.6722 93.0781 55.1373 92.6097C55.6057 92.1446 55.8733 91.4955 55.8733 90.8364C55.8733 90.1773 55.6057 89.5283 55.1373 89.0632C54.6722 88.5948 54.0231 88.3271 53.364 88.3271C52.7016 88.3271 52.0558 88.5948 51.5908 89.0632C51.1224 89.5283 50.8547 90.174 50.8547 90.8364C50.8547 91.4989 51.1224 92.1446 51.5908 92.6097C52.0558 93.0781 52.7049 93.3457 53.364 93.3457Z" fill="black"/>
<path d="M37.3047 93.3457C37.9638 93.3457 38.6129 93.0781 39.0779 92.6097C39.5463 92.1446 39.814 91.4989 39.814 90.8364C39.814 90.1773 39.5463 89.5283 39.0779 89.0632C38.6129 88.5948 37.9638 88.3271 37.3047 88.3271C36.6422 88.3271 35.9965 88.5948 35.5315 89.0632C35.0631 89.5283 34.7954 90.174 34.7954 90.8364C34.7954 91.4989 35.0631 92.1446 35.5315 92.6097C35.9965 93.0781 36.6456 93.3457 37.3047 93.3457Z" fill="black"/>
<path d="M21.2452 93.3457C21.9044 93.3457 22.5534 93.0781 23.0185 92.6097C23.4869 92.1446 23.7545 91.4989 23.7545 90.8364C23.7545 90.1773 23.4869 89.5283 23.0185 89.0632C22.5534 88.5948 21.9044 88.3271 21.2452 88.3271C20.5828 88.3271 19.9371 88.5948 19.472 89.0632C19.0036 89.5283 18.736 90.174 18.736 90.8364C18.736 91.4989 19.0036 92.1446 19.472 92.6097C19.9371 93.0781 20.5861 93.3457 21.2452 93.3457Z" fill="black"/>
</svg>
