<svg width="256" height="166" viewBox="0 0 256 166" fill="none" xmlns="http://www.w3.org/2000/svg">
<path d="M24.432 39.064C26.7786 39.064 28.976 38.5734 31.024 37.592C33.072 36.6107 34.8853 35.2027 36.464 33.368L42.544 39.384C40.4106 41.9014 37.68 43.9067 34.352 45.4C31.0666 46.8934 27.6746 47.64 24.176 47.64C20.8053 47.64 17.648 47.0427 14.704 45.848C11.8026 44.6534 9.28529 43.032 7.15196 40.984C5.01862 38.936 3.33329 36.504 2.09596 33.688C0.901288 30.872 0.303955 27.8427 0.303955 24.6C0.303955 21.3574 0.922622 18.328 2.15996 15.512C3.39729 12.6534 5.08262 10.2 7.21596 8.15203C9.34929 6.10403 11.8666 4.4827 14.768 3.28803C17.712 2.09336 20.848 1.49603 24.176 1.49603C27.76 1.49603 31.2373 2.26403 34.608 3.80003C37.9786 5.29336 40.7093 7.32003 42.8 9.88003L36.528 16.088C34.9493 14.1254 33.0933 12.632 30.96 11.608C28.8266 10.5414 26.5653 10.008 24.176 10.008C22.1706 10.008 20.272 10.392 18.48 11.16C16.7306 11.8854 15.216 12.9094 13.936 14.232C12.656 15.512 11.6533 17.048 10.928 18.84C10.2026 20.5894 9.83996 22.5094 9.83996 24.6C9.83996 26.648 10.2026 28.568 10.928 30.36C11.696 32.1094 12.72 33.624 14 34.904C15.3226 36.184 16.8586 37.208 18.608 37.976C20.4 38.7014 22.3413 39.064 24.432 39.064Z" fill="black"/>
<path d="M57.9535 47.576C54.3695 47.576 51.4468 46.6374 49.1855 44.76C46.9241 42.84 45.7935 40.3654 45.7935 37.336C45.7935 34.1787 47.0095 31.704 49.4415 29.912C51.8735 28.12 55.2228 27.224 59.4895 27.224C60.8548 27.224 62.2201 27.3307 63.5855 27.544C64.9508 27.7574 66.2948 28.0774 67.6175 28.504V26.136C67.6175 24.216 67.0201 22.7654 65.8255 21.784C64.6308 20.8027 62.8815 20.312 60.5775 20.312C59.1695 20.312 57.6335 20.5467 55.9695 21.016C54.3481 21.4427 52.4921 22.1254 50.4015 23.064L47.2015 16.6C49.8041 15.4054 52.3215 14.5094 54.7535 13.912C57.2281 13.3147 59.6601 13.016 62.0495 13.016C66.5295 13.016 70.0068 14.104 72.4815 16.28C74.9988 18.4134 76.2575 21.4427 76.2575 25.368V47H67.6175V44.696C66.2095 45.6774 64.7161 46.4027 63.1375 46.872C61.6015 47.3414 59.8735 47.576 57.9535 47.576ZM54.1775 37.144C54.1775 38.424 54.7321 39.448 55.8415 40.216C56.9508 40.9414 58.4228 41.304 60.2575 41.304C61.7081 41.304 63.0308 41.1334 64.2255 40.792C65.4628 40.408 66.5935 39.8747 67.6175 39.192V34.2C66.5508 33.7734 65.4201 33.4747 64.2255 33.304C63.0735 33.0907 61.8575 32.984 60.5775 32.984C58.5721 32.984 56.9935 33.368 55.8415 34.136C54.7321 34.8614 54.1775 35.864 54.1775 37.144Z" fill="black"/>
<path d="M82.8935 47V2.20003L91.6615 0.280029V27.736L106.061 13.656H115.981L100.365 28.952L116.941 47H105.741L91.6615 31.768V47H82.8935Z" fill="black"/>
<path d="M146.656 42.84C144.608 44.504 142.496 45.72 140.32 46.488C138.187 47.256 135.798 47.64 133.152 47.64C130.635 47.64 128.267 47.192 126.048 46.296C123.872 45.4 121.974 44.184 120.352 42.648C118.774 41.112 117.515 39.2987 116.576 37.208C115.68 35.0747 115.232 32.792 115.232 30.36C115.232 27.9707 115.659 25.7307 116.512 23.64C117.408 21.5067 118.624 19.672 120.16 18.136C121.696 16.5574 123.51 15.32 125.6 14.424C127.734 13.528 129.995 13.08 132.384 13.08C134.731 13.08 136.907 13.5494 138.912 14.488C140.96 15.384 142.71 16.6214 144.16 18.2C145.654 19.7787 146.806 21.6774 147.616 23.896C148.47 26.072 148.896 28.44 148.896 31V33.304H124.064C124.662 35.3947 125.814 37.08 127.52 38.36C129.227 39.64 131.232 40.28 133.536 40.28C134.987 40.28 136.352 40.0454 137.632 39.576C138.912 39.1067 140 38.4454 140.896 37.592L146.656 42.84ZM132.192 20.312C130.187 20.312 128.459 20.9307 127.008 22.168C125.558 23.3627 124.555 24.984 124 27.032H140.32C139.766 25.0694 138.742 23.4694 137.248 22.232C135.798 20.952 134.112 20.312 132.192 20.312Z" fill="black"/>
<path d="M154.844 2.20003H175.9C180.38 2.20003 184.028 3.35203 186.844 5.65603C189.66 7.91736 191.068 10.8614 191.068 14.488C191.068 16.4507 190.578 18.2427 189.596 19.864C188.615 21.4854 187.271 22.8294 185.564 23.896C187.698 24.92 189.404 26.328 190.684 28.12C191.964 29.8694 192.604 31.832 192.604 34.008C192.604 37.8907 191.154 41.0267 188.252 43.416C185.394 45.8054 181.618 47 176.924 47H154.844V2.20003ZM175.324 9.88003H164.124V20.504H175.324C177.287 20.504 178.866 20.0347 180.06 19.096C181.255 18.1147 181.852 16.8134 181.852 15.192C181.852 13.5707 181.255 12.2907 180.06 11.352C178.866 10.3707 177.287 9.88003 175.324 9.88003ZM176.22 39.32C178.354 39.32 180.06 38.808 181.34 37.784C182.62 36.7174 183.26 35.288 183.26 33.496C183.26 31.7894 182.62 30.4027 181.34 29.336C180.06 28.2694 178.354 27.736 176.22 27.736H164.124V39.32H176.22Z" fill="black"/>
<path d="M209.078 47.576C205.494 47.576 202.572 46.6374 200.31 44.76C198.049 42.84 196.918 40.3654 196.918 37.336C196.918 34.1787 198.134 31.704 200.566 29.912C202.998 28.12 206.348 27.224 210.614 27.224C211.98 27.224 213.345 27.3307 214.71 27.544C216.076 27.7574 217.42 28.0774 218.742 28.504V26.136C218.742 24.216 218.145 22.7654 216.95 21.784C215.756 20.8027 214.006 20.312 211.702 20.312C210.294 20.312 208.758 20.5467 207.094 21.016C205.473 21.4427 203.617 22.1254 201.526 23.064L198.326 16.6C200.929 15.4054 203.446 14.5094 205.878 13.912C208.353 13.3147 210.785 13.016 213.174 13.016C217.654 13.016 221.132 14.104 223.606 16.28C226.124 18.4134 227.382 21.4427 227.382 25.368V47H218.742V44.696C217.334 45.6774 215.841 46.4027 214.262 46.872C212.726 47.3414 210.998 47.576 209.078 47.576ZM205.302 37.144C205.302 38.424 205.857 39.448 206.966 40.216C208.076 40.9414 209.548 41.304 211.382 41.304C212.833 41.304 214.156 41.1334 215.35 40.792C216.588 40.408 217.718 39.8747 218.742 39.192V34.2C217.676 33.7734 216.545 33.4747 215.35 33.304C214.198 33.0907 212.982 32.984 211.702 32.984C209.697 32.984 208.118 33.368 206.966 34.136C205.857 34.8614 205.302 35.864 205.302 37.144Z" fill="black"/>
<path d="M234.018 47V13.656H242.786V17.304C243.853 15.8534 245.133 14.7654 246.626 14.04C248.162 13.272 249.848 12.888 251.682 12.888C252.536 12.9307 253.24 13.016 253.794 13.144C254.392 13.2294 254.904 13.4 255.33 13.656V21.336C254.69 21.0374 253.986 20.824 253.218 20.696C252.45 20.5254 251.661 20.44 250.85 20.44C249.144 20.44 247.565 20.8667 246.114 21.72C244.706 22.5734 243.597 23.8107 242.786 25.432V47H234.018Z" fill="black"/>
<path d="M186.97 129.125H186.834V83.5134C186.834 72.8413 178.152 64.1588 167.48 64.1588H130.53V61.3883C133.045 60.5389 134.861 58.1589 134.861 55.361C134.861 51.8537 132.008 49 128.5 49C124.992 49 122.139 51.8537 122.139 55.3613C122.139 58.1592 123.955 60.5391 126.47 61.3886V64.1588H89.5201C78.848 64.1588 70.1655 72.8411 70.1655 83.5134V129.125H70.0302C68.909 129.125 68 130.034 68 131.155V133.321C68 138.023 71.8252 141.848 76.5268 141.848H115.576C115.279 145.891 113.753 155.313 106.13 161.609H102.513C101.392 161.609 100.483 162.517 100.483 163.639C100.483 164.76 101.392 165.669 102.513 165.669H106.844C106.845 165.669 106.845 165.669 106.846 165.669C106.847 165.669 106.847 165.669 106.848 165.669H150.157C150.157 165.669 150.158 165.669 150.158 165.669C150.159 165.669 150.16 165.669 150.161 165.669H154.487C155.608 165.669 156.517 164.76 156.517 163.639C156.517 162.517 155.608 161.609 154.487 161.609H150.874C143.284 155.337 141.74 145.896 141.433 141.848H180.473C185.175 141.848 189 138.023 189 133.321V131.155C189 130.034 188.091 129.125 186.97 129.125ZM128.5 53.0604C129.769 53.0604 130.801 54.0926 130.801 55.3613C130.801 56.63 129.769 57.6622 128.5 57.6622C127.231 57.6622 126.199 56.63 126.199 55.3613C126.199 54.0926 127.231 53.0604 128.5 53.0604ZM74.226 83.5134C74.226 75.08 81.0869 68.2192 89.5201 68.2192H167.48C175.913 68.2192 182.774 75.0802 182.774 83.5134V129.125H178.172V83.5134C178.172 77.6177 173.376 72.821 167.48 72.821H89.5201C83.6244 72.821 78.8277 77.6174 78.8277 83.5134V129.125H74.226V83.5134ZM82.8881 129.125V124.523H174.112V129.125H82.8881ZM82.8881 100.696C82.9333 100.699 82.9783 100.702 83.0235 100.702C83.5568 100.702 84.0819 100.486 84.4582 100.107C84.8371 99.7307 85.0537 99.2082 85.0537 98.6723C85.0537 98.139 84.8371 97.6138 84.4582 97.2376C84.0819 96.8586 83.5568 96.6421 83.0235 96.6421C82.9783 96.6421 82.9333 96.6458 82.8881 96.6488V92.0332C82.9331 92.0362 82.9777 92.04 83.0235 92.04C85.624 92.04 87.955 90.8684 89.5201 89.0269C91.0853 90.8684 93.4162 92.04 96.0168 92.04C98.6173 92.04 100.948 90.8684 102.513 89.0269C104.079 90.8684 106.41 92.04 109.01 92.04C111.611 92.04 113.942 90.8684 115.507 89.0269C117.072 90.8684 119.403 92.04 122.003 92.04C124.604 92.04 126.935 90.8684 128.5 89.0269C130.065 90.8684 132.396 92.04 134.997 92.04C137.597 92.04 139.928 90.8684 141.493 89.0269C143.058 90.8684 145.389 92.04 147.99 92.04C150.59 92.04 152.921 90.8684 154.487 89.0269C156.052 90.8684 158.383 92.04 160.983 92.04C163.584 92.04 165.915 90.8684 167.48 89.0269C169.045 90.8684 171.376 92.04 173.977 92.04C174.022 92.04 174.067 92.0362 174.112 92.0332V96.6488C174.067 96.6458 174.022 96.6421 173.977 96.6421C173.443 96.6421 172.918 96.8586 172.542 97.2376C172.163 97.6138 171.946 98.139 171.946 98.6723C171.946 99.2082 172.163 99.7307 172.542 100.107C172.918 100.486 173.443 100.702 173.977 100.702C174.022 100.702 174.067 100.699 174.112 100.696V109.644C174.056 109.639 174.001 109.635 173.944 109.635C171.704 109.635 170.469 110.458 169.567 111.059C168.849 111.537 168.453 111.801 167.442 111.801C166.431 111.801 166.035 111.537 165.317 111.059C164.415 110.458 163.18 109.635 160.941 109.635C158.702 109.635 157.467 110.458 156.565 111.059C155.847 111.538 155.452 111.801 154.441 111.801C153.433 111.801 153.038 111.538 152.322 111.059C151.421 110.459 150.187 109.635 147.949 109.635C145.709 109.635 144.475 110.458 143.573 111.059C142.855 111.538 142.459 111.801 141.449 111.801C140.438 111.801 140.042 111.537 139.324 111.059C138.423 110.458 137.188 109.635 134.948 109.635C132.71 109.635 131.475 110.458 130.574 111.059C129.856 111.537 129.461 111.801 128.451 111.801C127.443 111.801 127.048 111.538 126.331 111.059C125.43 110.458 124.196 109.635 121.957 109.635C119.718 109.635 118.484 110.458 117.582 111.059C116.865 111.537 116.469 111.801 115.459 111.801C114.452 111.801 114.057 111.538 113.34 111.059C112.439 110.459 111.206 109.635 108.968 109.635C106.729 109.635 105.495 110.458 104.594 111.059C103.876 111.538 103.481 111.801 102.472 111.801C101.466 111.801 101.071 111.538 100.356 111.06C99.4551 110.459 98.2221 109.635 95.9846 109.635C93.7459 109.635 92.5118 110.458 91.6107 111.059C90.8936 111.538 90.4984 111.801 89.4895 111.801C88.4831 111.801 88.0887 111.538 87.373 111.06C86.4727 110.459 85.2397 109.635 83.0021 109.635C82.9637 109.635 82.926 109.639 82.8881 109.641V100.696ZM174.112 87.9866C174.067 87.9837 174.022 87.9799 173.977 87.9799C171.514 87.9799 169.51 85.9762 169.51 83.5134C169.51 82.3922 168.601 81.4832 167.48 81.4832C166.359 81.4832 165.45 82.3922 165.45 83.5134C165.45 85.9762 163.446 87.9799 160.983 87.9799C158.52 87.9799 156.517 85.9762 156.517 83.5134C156.517 82.3922 155.608 81.4832 154.487 81.4832C153.365 81.4832 152.456 82.3922 152.456 83.5134C152.456 85.9762 150.453 87.9799 147.99 87.9799C145.527 87.9799 143.523 85.9762 143.523 83.5134C143.523 82.3922 142.615 81.4832 141.493 81.4832C140.372 81.4832 139.463 82.3922 139.463 83.5134C139.463 85.9762 137.459 87.9799 134.997 87.9799C132.534 87.9799 130.53 85.9762 130.53 83.5134C130.53 82.3922 129.621 81.4832 128.5 81.4832C127.379 81.4832 126.47 82.3922 126.47 83.5134C126.47 85.9762 124.466 87.9799 122.003 87.9799C119.541 87.9799 117.537 85.9762 117.537 83.5134C117.537 82.3922 116.628 81.4832 115.507 81.4832C114.385 81.4832 113.477 82.3922 113.477 83.5134C113.477 85.9762 111.473 87.9799 109.01 87.9799C106.547 87.9799 104.544 85.9762 104.544 83.5134C104.544 82.3922 103.635 81.4832 102.513 81.4832C101.392 81.4832 100.483 82.3922 100.483 83.5134C100.483 85.9762 98.4795 87.9799 96.0168 87.9799C93.554 87.9799 91.5503 85.9762 91.5503 83.5134C91.5503 82.3922 90.6413 81.4832 89.5201 81.4832C88.3989 81.4832 87.4899 82.3922 87.4899 83.5134C87.4899 85.9762 85.4863 87.9799 83.0235 87.9799C82.9777 87.9799 82.9331 87.9837 82.8881 87.9866V83.5134C82.8881 79.8564 85.8633 76.8814 89.5201 76.8814H167.48C171.137 76.8814 174.112 79.8566 174.112 83.5134V87.9866ZM82.8881 113.69C82.926 113.692 82.9637 113.696 83.0021 113.696C84.0085 113.696 84.4029 113.959 85.1187 114.437C86.019 115.038 87.2523 115.861 89.4895 115.861C91.7282 115.861 92.9623 115.038 93.8634 114.437C94.5805 113.959 94.9757 113.696 95.9846 113.696C96.9913 113.696 97.3854 113.959 98.1014 114.437C99.002 115.038 100.235 115.861 102.472 115.861C104.711 115.861 105.945 115.038 106.846 114.437C107.564 113.959 107.959 113.696 108.968 113.696C109.976 113.696 110.371 113.959 111.087 114.437C111.988 115.038 113.222 115.861 115.46 115.861C117.699 115.861 118.933 115.038 119.835 114.438C120.552 113.959 120.948 113.696 121.958 113.696C122.966 113.696 123.361 113.959 124.078 114.437C124.979 115.038 126.213 115.861 128.452 115.861C130.69 115.861 131.925 115.038 132.826 114.438C133.544 113.959 133.939 113.696 134.949 113.696C135.959 113.696 136.355 113.959 137.073 114.438C137.975 115.038 139.209 115.861 141.449 115.861C143.688 115.861 144.923 115.038 145.824 114.438C146.543 113.959 146.938 113.696 147.949 113.696C148.957 113.696 149.352 113.959 150.068 114.437C150.969 115.038 152.203 115.861 154.441 115.861C156.681 115.861 157.915 115.038 158.817 114.438C159.535 113.959 159.93 113.696 160.941 113.696C161.952 113.696 162.348 113.959 163.066 114.438C163.967 115.039 165.202 115.861 167.442 115.861C169.681 115.861 170.917 115.039 171.818 114.438C172.537 113.959 172.933 113.696 173.944 113.696C174.001 113.696 174.056 113.692 174.112 113.687V120.463H82.8881V113.69ZM145.066 161.609H111.938C118.148 154.511 119.412 145.797 119.653 141.848H137.351C137.592 145.797 138.856 154.511 145.066 161.609ZM184.94 133.321C184.94 135.784 182.936 137.787 180.473 137.787H76.5268C74.0641 137.787 72.0604 135.784 72.0604 133.321V133.186H184.94V133.321Z" fill="black"/>
<path d="M129.878 149.007C130.535 151.465 131.433 153.793 132.547 155.926C132.909 156.62 133.616 157.017 134.349 157.017C134.665 157.017 134.986 156.943 135.286 156.786C136.28 156.268 136.665 155.041 136.146 154.047C135.17 152.177 134.381 150.128 133.801 147.958C133.511 146.875 132.398 146.232 131.315 146.521C130.232 146.811 129.588 147.924 129.878 149.007Z" fill="black"/>
<path d="M96.017 100.702C96.5503 100.702 97.0754 100.486 97.4517 100.107C97.8307 99.7307 98.0472 99.2056 98.0472 98.6723C98.0472 98.139 97.8307 97.6139 97.4517 97.2376C97.0754 96.8586 96.5503 96.6421 96.017 96.6421C95.4838 96.6421 94.9586 96.8586 94.5823 97.2376C94.2034 97.6139 93.9868 98.139 93.9868 98.6723C93.9868 99.2083 94.2034 99.7307 94.5823 100.107C94.9586 100.486 95.4838 100.702 96.017 100.702Z" fill="black"/>
<path d="M109.01 100.702C109.543 100.702 110.068 100.486 110.445 100.107C110.824 99.7307 111.04 99.2083 111.04 98.6723C111.04 98.139 110.824 97.6139 110.445 97.2376C110.068 96.8586 109.543 96.6421 109.01 96.6421C108.477 96.6421 107.952 96.8586 107.575 97.2376C107.196 97.6139 106.98 98.139 106.98 98.6723C106.98 99.2056 107.196 99.7307 107.575 100.107C107.952 100.486 108.477 100.702 109.01 100.702Z" fill="black"/>
<path d="M122.003 100.702C122.537 100.702 123.062 100.486 123.438 100.107C123.817 99.7307 124.034 99.2056 124.034 98.6723C124.034 98.139 123.817 97.6139 123.438 97.2376C123.062 96.8586 122.537 96.6421 122.003 96.6421C121.47 96.6421 120.945 96.8586 120.569 97.2376C120.19 97.6139 119.973 98.139 119.973 98.6723C119.973 99.2083 120.19 99.7307 120.569 100.107C120.945 100.486 121.47 100.702 122.003 100.702Z" fill="black"/>
<path d="M134.997 100.702C135.53 100.702 136.055 100.486 136.431 100.107C136.81 99.7307 137.027 99.2083 137.027 98.6723C137.027 98.139 136.81 97.6139 136.431 97.2376C136.055 96.8586 135.53 96.6421 134.997 96.6421C134.463 96.6421 133.938 96.8586 133.562 97.2376C133.183 97.6139 132.967 98.139 132.967 98.6723C132.967 99.2056 133.183 99.7307 133.562 100.107C133.938 100.486 134.463 100.702 134.997 100.702Z" fill="black"/>
<path d="M147.99 100.702C148.523 100.702 149.049 100.486 149.425 100.107C149.804 99.7307 150.02 99.2056 150.02 98.6723C150.02 98.139 149.804 97.6139 149.425 97.2376C149.049 96.8586 148.523 96.6421 147.99 96.6421C147.457 96.6421 146.932 96.8586 146.555 97.2376C146.177 97.6139 145.96 98.139 145.96 98.6723C145.96 99.2056 146.177 99.7307 146.555 100.107C146.932 100.486 147.457 100.702 147.99 100.702Z" fill="black"/>
<path d="M160.984 100.702C161.517 100.702 162.042 100.486 162.418 100.107C162.797 99.7307 163.014 99.2056 163.014 98.6723C163.014 98.139 162.797 97.6139 162.418 97.2376C162.042 96.8586 161.52 96.6421 160.984 96.6421C160.45 96.6421 159.925 96.8586 159.549 97.2376C159.17 97.6139 158.953 98.139 158.953 98.6723C158.953 99.2056 159.17 99.7307 159.549 100.107C159.925 100.486 160.45 100.702 160.984 100.702Z" fill="black"/>
</svg>
