<svg width="67" height="67" viewBox="0 0 67 67" fill="none" xmlns="http://www.w3.org/2000/svg">
<g clip-path="url(#clip0)">
<path fill-rule="evenodd" clip-rule="evenodd" d="M58.1443 34.7718H58.0872V15.547C58.0872 11.0488 54.4277 7.38926 49.9295 7.38926H34.3557V6.22151C35.4156 5.86348 36.1812 4.86037 36.1812 3.68109C36.1812 2.20278 34.9784 1 33.5 1C32.0216 1 30.8188 2.20278 30.8188 3.68121C30.8188 4.86048 31.5844 5.8636 32.6443 6.22162V7.38926H17.0705C12.5723 7.38926 8.91275 11.0487 8.91275 15.547V34.7718H8.8557C8.38313 34.7718 8 35.1549 8 35.6275V36.5403C8 38.522 9.61226 40.1342 11.594 40.1342H28.0527C27.9277 41.8383 27.2845 45.8095 24.0715 48.4631H22.547C22.0744 48.4631 21.6913 48.8462 21.6913 49.3188C21.6913 49.7914 22.0744 50.1745 22.547 50.1745H24.3721H24.3732H24.3739H42.628H42.6287H42.6297H44.453C44.9256 50.1745 45.3087 49.7914 45.3087 49.3188C45.3087 48.8462 44.9256 48.4631 44.453 48.4631H42.9302C39.7314 45.8198 39.0807 41.8406 38.9513 40.1342H55.406C57.3877 40.1342 59 38.522 59 36.5403V35.6275C59 35.1549 58.617 34.7718 58.1443 34.7718ZM33.5 2.71141C34.0348 2.71141 34.4698 3.14645 34.4698 3.68121C34.4698 4.21597 34.0348 4.65101 33.5 4.65101C32.9652 4.65101 32.5302 4.21597 32.5302 3.68121C32.5302 3.14645 32.9652 2.71141 33.5 2.71141ZM10.6242 15.547C10.6242 11.9924 13.516 9.10067 17.0705 9.10067H49.9295C53.484 9.10067 56.3758 11.9925 56.3758 15.547V34.7718H54.4362V15.547C54.4362 13.062 52.4145 11.0403 49.9295 11.0403H17.0705C14.5855 11.0403 12.5638 13.0619 12.5638 15.547V34.7718H10.6242V15.547ZM14.2752 34.7718V32.8322H52.7248V34.7718H14.2752ZM14.2752 22.7891L14.2854 22.7898C14.301 22.7909 14.3166 22.7919 14.3322 22.7919C14.557 22.7919 14.7783 22.7007 14.9369 22.5409C15.0966 22.3824 15.1879 22.1621 15.1879 21.9362C15.1879 21.7115 15.0966 21.4901 14.9369 21.3315C14.7783 21.1718 14.557 21.0805 14.3322 21.0805C14.3166 21.0805 14.301 21.0816 14.2854 21.0827L14.2752 21.0834V19.138C14.2941 19.1392 14.3129 19.1408 14.3322 19.1408C15.4283 19.1408 16.4108 18.647 17.0705 17.8708C17.7302 18.647 18.7126 19.1408 19.8087 19.1408C20.9048 19.1408 21.8873 18.647 22.547 17.8708C23.2067 18.647 24.1891 19.1408 25.2852 19.1408C26.3813 19.1408 27.3638 18.647 28.0235 17.8708C28.6832 18.647 29.6656 19.1408 30.7617 19.1408C31.8578 19.1408 32.8403 18.647 33.5 17.8708C34.1597 18.647 35.1422 19.1408 36.2383 19.1408C37.3344 19.1408 38.3168 18.647 38.9765 17.8708C39.6362 18.647 40.6187 19.1408 41.7148 19.1408C42.8109 19.1408 43.7933 18.647 44.453 17.8708C45.1127 18.647 46.0952 19.1408 47.1913 19.1408C48.2874 19.1408 49.2698 18.647 49.9295 17.8708C50.5892 18.647 51.5717 19.1408 52.6678 19.1408C52.6837 19.1408 52.6992 19.1397 52.7148 19.1387L52.7248 19.138V21.0834L52.7146 21.0827C52.699 21.0816 52.6834 21.0805 52.6678 21.0805C52.443 21.0805 52.2217 21.1718 52.0631 21.3315C51.9034 21.4901 51.8121 21.7115 51.8121 21.9362C51.8121 22.1621 51.9034 22.3824 52.0631 22.5409C52.2217 22.7007 52.443 22.7919 52.6678 22.7919L52.68 22.7917L52.6893 22.7914L52.6943 22.7911L52.715 22.7898L52.7248 22.7891V26.5606C52.7014 26.5586 52.6781 26.557 52.6541 26.557C51.7102 26.557 51.1898 26.9037 50.8096 27.1568L50.8094 27.157C50.5066 27.3587 50.3397 27.4698 49.9134 27.4698C49.4875 27.4698 49.3208 27.3587 49.0182 27.1571L49.0179 27.157C48.6379 26.9038 48.1174 26.557 47.1735 26.557C46.2299 26.557 45.7095 26.9037 45.3295 27.1568L45.3291 27.1571C45.0265 27.3588 44.8598 27.4698 44.4339 27.4698C44.009 27.4698 43.8425 27.3588 43.5405 27.1573L43.5404 27.1572C43.1607 26.9039 42.6407 26.557 41.6974 26.557C40.7538 26.557 40.2335 26.9037 39.8534 27.1568L39.8531 27.1571C39.5504 27.3588 39.3837 27.4698 38.9577 27.4698C38.5318 27.4698 38.3651 27.3588 38.0626 27.1573L38.0623 27.1571L38.0619 27.1568C37.6819 26.9037 37.1616 26.557 36.2179 26.557C35.2743 26.557 34.7539 26.9039 34.3741 27.1571L34.3738 27.1573C34.0715 27.3587 33.9049 27.4698 33.4795 27.4698C33.0543 27.4698 32.8879 27.3588 32.5858 27.1572C32.2059 26.9039 31.6858 26.557 30.7423 26.557C29.7988 26.557 29.2784 26.9038 28.8985 27.157L28.8984 27.1571L28.8983 27.1571C28.5959 27.3587 28.4292 27.4698 28.0035 27.4698C27.5788 27.4698 27.4124 27.3588 27.1105 27.1574L27.1104 27.1573L27.1103 27.1572C26.7306 26.9039 26.2106 26.557 25.2673 26.557C24.3238 26.557 23.8036 26.9039 23.4238 27.1572L23.4237 27.1572C23.1214 27.3588 22.955 27.4698 22.5296 27.4698C22.1054 27.4698 21.9392 27.3589 21.6375 27.1574L21.6375 27.1574C21.2579 26.904 20.7382 26.557 19.7951 26.557C18.8516 26.557 18.3314 26.9039 17.9516 27.1572C17.6494 27.3588 17.4828 27.4698 17.0576 27.4698C16.6334 27.4698 16.4671 27.3589 16.1655 27.1574L16.1651 27.1572C15.7857 26.9039 15.266 26.557 14.3232 26.557C14.3115 26.557 14.2999 26.5578 14.2884 26.5586L14.2752 26.5594V22.7891ZM52.7248 17.4324L52.7148 17.4317C52.6992 17.4306 52.6837 17.4295 52.6678 17.4295C51.6298 17.4295 50.7852 16.585 50.7852 15.547C50.7852 15.0744 50.4021 14.6913 49.9295 14.6913C49.457 14.6913 49.0738 15.0744 49.0738 15.547C49.0738 16.585 48.2293 17.4295 47.1913 17.4295C46.1532 17.4295 45.3087 16.585 45.3087 15.547C45.3087 15.0744 44.9256 14.6913 44.453 14.6913C43.9804 14.6913 43.5973 15.0744 43.5973 15.547C43.5973 16.585 42.7528 17.4295 41.7148 17.4295C40.6767 17.4295 39.8322 16.585 39.8322 15.547C39.8322 15.0744 39.4491 14.6913 38.9765 14.6913C38.5039 14.6913 38.1208 15.0744 38.1208 15.547C38.1208 16.585 37.2763 17.4295 36.2383 17.4295C35.2002 17.4295 34.3557 16.585 34.3557 15.547C34.3557 15.0744 33.9726 14.6913 33.5 14.6913C33.0274 14.6913 32.6443 15.0744 32.6443 15.547C32.6443 16.585 31.7998 17.4295 30.7617 17.4295C29.7237 17.4295 28.8792 16.585 28.8792 15.547C28.8792 15.0744 28.4961 14.6913 28.0235 14.6913C27.5509 14.6913 27.1678 15.0744 27.1678 15.547C27.1678 16.585 26.3233 17.4295 25.2852 17.4295C24.2472 17.4295 23.4027 16.585 23.4027 15.547C23.4027 15.0744 23.0196 14.6913 22.547 14.6913C22.0744 14.6913 21.6913 15.0744 21.6913 15.547C21.6913 16.585 20.8468 17.4295 19.8087 17.4295C18.7707 17.4295 17.9262 16.585 17.9262 15.547C17.9262 15.0744 17.543 14.6913 17.0705 14.6913C16.5979 14.6913 16.2148 15.0744 16.2148 15.547C16.2148 16.585 15.3702 17.4295 14.3322 17.4295C14.3163 17.4295 14.3008 17.4306 14.2852 17.4317L14.2752 17.4324V15.547C14.2752 14.0056 15.5292 12.7517 17.0705 12.7517H49.9295C51.4708 12.7517 52.7248 14.0057 52.7248 15.547V17.4324ZM14.2884 28.2669C14.2999 28.2677 14.3115 28.2685 14.3232 28.2685C14.7474 28.2685 14.9136 28.3794 15.2153 28.5808C15.5948 28.8343 16.1146 29.1812 17.0576 29.1812C18.0011 29.1812 18.5213 28.8344 18.9011 28.5811C19.2033 28.3795 19.3699 28.2685 19.7951 28.2685C20.2192 28.2685 20.3854 28.3793 20.6868 28.5805L20.6874 28.5808L20.6874 28.5809L20.6874 28.5809C21.067 28.8343 21.5867 29.1812 22.5296 29.1812C23.4732 29.1812 23.9935 28.8344 24.3733 28.5811L24.3733 28.581C24.6757 28.3795 24.8421 28.2685 25.2674 28.2685C25.6923 28.2685 25.8586 28.3794 26.1606 28.5809L26.1607 28.581C26.5404 28.8344 27.0604 29.1812 28.0036 29.1812C28.9472 29.1812 29.4676 28.8345 29.8475 28.5813L29.8476 28.5812L29.8477 28.5811C30.1501 28.3796 30.3168 28.2685 30.7425 28.2685C31.1676 28.2685 31.334 28.3795 31.6362 28.5811C32.016 28.8344 32.5361 29.1812 33.4796 29.1812C34.4232 29.1812 34.9436 28.8344 35.3234 28.5812L35.3238 28.581C35.626 28.3795 35.7926 28.2685 36.2181 28.2685C36.6438 28.2685 36.8105 28.3795 37.113 28.581L37.1134 28.5812L37.1137 28.5814C37.4937 28.8346 38.0141 29.1812 38.9577 29.1812C39.9013 29.1812 40.4217 28.8346 40.8017 28.5814L40.802 28.5812C41.1047 28.3795 41.2714 28.2685 41.6974 28.2685C42.1223 28.2685 42.2888 28.3795 42.5908 28.581L42.5909 28.581C42.9706 28.8343 43.4906 29.1812 44.4339 29.1812C45.3775 29.1812 45.8978 28.8346 46.2779 28.5814L46.2782 28.5812C46.5809 28.3795 46.7476 28.2685 47.1735 28.2685C47.5995 28.2685 47.7663 28.3796 48.069 28.5813C48.449 28.8345 48.9695 29.1812 49.9134 29.1812C50.8575 29.1812 51.3781 28.8345 51.7581 28.5813C52.0609 28.3796 52.2278 28.2685 52.6541 28.2685C52.6779 28.2685 52.7014 28.2669 52.7248 28.2649V31.1208H14.2752V28.2661L14.2884 28.2669ZM40.4823 48.4631H26.5195C29.1367 45.4714 29.6695 41.7986 29.7713 40.1342H37.2304C37.3323 41.7986 37.865 45.4714 40.4823 48.4631ZM57.2886 36.5403C57.2886 37.5783 56.4441 38.4228 55.406 38.4228H11.594C10.5559 38.4228 9.71141 37.5783 9.71141 36.5403V36.4832H57.2886V36.5403ZM34.0808 43.1518C34.3578 44.1878 34.7364 45.169 35.2057 46.0682C35.3584 46.3606 35.6564 46.528 35.965 46.528C36.0984 46.528 36.2338 46.4967 36.3604 46.4306C36.7793 46.2119 36.9416 45.695 36.7228 45.276C36.3114 44.488 35.9787 43.6244 35.7341 42.7096C35.612 42.253 35.1429 41.9819 34.6864 42.104C34.2298 42.2263 33.9587 42.6953 34.0808 43.1518ZM20.4135 22.541C20.2549 22.7007 20.0336 22.792 19.8088 22.792C19.5841 22.792 19.3627 22.7007 19.2041 22.541C19.0444 22.3824 18.9531 22.1622 18.9531 21.9363C18.9531 21.7115 19.0444 21.4902 19.2041 21.3316C19.3627 21.1718 19.5841 21.0806 19.8088 21.0806C20.0336 21.0806 20.2549 21.1718 20.4135 21.3316C20.5733 21.4902 20.6645 21.7115 20.6645 21.9363C20.6645 22.161 20.5733 22.3824 20.4135 22.541ZM25.2851 22.792C25.5099 22.792 25.7313 22.7007 25.8898 22.541C26.0496 22.3824 26.1409 22.1622 26.1409 21.9363C26.1409 21.7115 26.0496 21.4902 25.8898 21.3316C25.7313 21.1718 25.5099 21.0806 25.2851 21.0806C25.0604 21.0806 24.839 21.1718 24.6805 21.3316C24.5207 21.4902 24.4294 21.7115 24.4294 21.9363C24.4294 22.161 24.5207 22.3824 24.6805 22.541C24.839 22.7007 25.0604 22.792 25.2851 22.792ZM31.3664 22.541C31.2078 22.7007 30.9865 22.792 30.7617 22.792C30.5369 22.792 30.3156 22.7007 30.157 22.541C29.9973 22.3824 29.906 22.1622 29.906 21.9363C29.906 21.7115 29.9973 21.4902 30.157 21.3316C30.3156 21.1718 30.5369 21.0806 30.7617 21.0806C30.9865 21.0806 31.2078 21.1718 31.3664 21.3316C31.5261 21.4902 31.6174 21.7115 31.6174 21.9363C31.6174 22.161 31.5261 22.3824 31.3664 22.541ZM36.2383 22.792C36.463 22.792 36.6844 22.7007 36.843 22.541C37.0027 22.3824 37.094 22.1622 37.094 21.9363C37.094 21.7115 37.0027 21.4902 36.843 21.3316C36.6844 21.1718 36.463 21.0806 36.2383 21.0806C36.0135 21.0806 35.7922 21.1718 35.6336 21.3316C35.4738 21.4902 35.3826 21.7115 35.3826 21.9363C35.3826 22.161 35.4738 22.3824 35.6336 22.541C35.7922 22.7007 36.0135 22.792 36.2383 22.792ZM42.3195 22.541C42.1609 22.7007 41.9396 22.792 41.7148 22.792C41.4901 22.792 41.2687 22.7007 41.1101 22.541C40.9504 22.3824 40.8591 22.161 40.8591 21.9363C40.8591 21.7115 40.9504 21.4902 41.1101 21.3316C41.2687 21.1718 41.4901 21.0806 41.7148 21.0806C41.9396 21.0806 42.1609 21.1718 42.3195 21.3316C42.4793 21.4902 42.5705 21.7115 42.5705 21.9363C42.5705 22.161 42.4793 22.3824 42.3195 22.541ZM47.1914 22.792C47.4162 22.792 47.6375 22.7007 47.7961 22.541C47.9558 22.3824 48.0471 22.161 48.0471 21.9363C48.0471 21.7115 47.9558 21.4902 47.7961 21.3316C47.6375 21.1718 47.4173 21.0806 47.1914 21.0806C46.9666 21.0806 46.7453 21.1718 46.5867 21.3316C46.427 21.4902 46.3357 21.7115 46.3357 21.9363C46.3357 22.161 46.427 22.3824 46.5867 22.541C46.7453 22.7007 46.9666 22.792 47.1914 22.792ZM23.7375 54.0938L22.4055 54.3997V66.9997H23.7375V62.6797L28.4895 66.9997H30.3075L25.1235 62.2658L30.0735 57.9818H28.4535L23.7375 62.0498V54.0938ZM6.36199 65.9198C7.14199 65.9198 7.88599 65.7698 8.59399 65.4697C9.30199 65.1578 9.89599 64.7318 10.376 64.1917L11.276 65.1277C10.652 65.7757 9.90799 66.2858 9.04399 66.6577C8.17999 67.0177 7.27399 67.1978 6.32599 67.1978C5.41399 67.1978 4.55599 67.0297 3.75199 66.6937C2.95999 66.3577 2.26999 65.9017 1.68199 65.3258C1.09399 64.7378 0.631992 64.0477 0.295992 63.2557C-0.0400078 62.4517 -0.208008 61.5998 -0.208008 60.6997C-0.208008 59.7998 -0.0400078 58.9538 0.295992 58.1618C0.631992 57.3577 1.09399 56.6678 1.68199 56.0918C2.26999 55.5037 2.95999 55.0417 3.75199 54.7057C4.55599 54.3698 5.41399 54.2018 6.32599 54.2018C7.29799 54.2018 8.21599 54.3877 9.07999 54.7598C9.95599 55.1198 10.7 55.6237 11.312 56.2718L10.394 57.2438C9.90199 56.6917 9.28999 56.2598 8.55799 55.9478C7.83799 55.6357 7.09399 55.4797 6.32599 55.4797C5.60599 55.4797 4.92799 55.6177 4.29199 55.8937C3.66799 56.1577 3.12799 56.5238 2.67199 56.9917C2.21599 57.4478 1.85599 57.9997 1.59199 58.6478C1.32799 59.2837 1.19599 59.9678 1.19599 60.6997C1.19599 61.4318 1.32799 62.1217 1.59199 62.7697C1.85599 63.4058 2.21599 63.9577 2.67199 64.4258C3.13999 64.8817 3.68599 65.2477 4.30999 65.5238C4.94599 65.7878 5.62999 65.9198 6.36199 65.9198ZM15.9682 67.1618C14.9842 67.1618 14.1802 66.9098 13.5562 66.4057C12.9442 65.9017 12.6382 65.2477 12.6382 64.4437C12.6382 63.6038 12.9622 62.9377 13.6102 62.4457C14.2582 61.9417 15.1342 61.6898 16.2382 61.6898C16.7182 61.6898 17.1802 61.7437 17.6242 61.8517C18.0802 61.9598 18.5002 62.1097 18.8842 62.3018V61.1138C18.8842 60.3937 18.6802 59.8537 18.2722 59.4938C17.8642 59.1217 17.2702 58.9357 16.4902 58.9357C16.0462 58.9357 15.5962 59.0018 15.1402 59.1338C14.6962 59.2537 14.2042 59.4518 13.6642 59.7277L13.1602 58.7018C13.8082 58.3898 14.4082 58.1618 14.9602 58.0177C15.5122 57.8737 16.0642 57.8018 16.6162 57.8018C17.7562 57.8018 18.6322 58.0718 19.2442 58.6117C19.8682 59.1517 20.1802 59.9258 20.1802 60.9338V66.9997H18.8842V66.1178C18.4762 66.4658 18.0262 66.7298 17.5342 66.9098C17.0542 67.0778 16.5322 67.1618 15.9682 67.1618ZM13.9162 64.4077C13.9162 64.9118 14.1262 65.3258 14.5462 65.6497C14.9782 65.9617 15.5302 66.1178 16.2022 66.1178C16.7422 66.1178 17.2342 66.0338 17.6782 65.8658C18.1222 65.6977 18.5242 65.4337 18.8842 65.0737V63.3818C18.5122 63.1297 18.1102 62.9497 17.6782 62.8418C17.2582 62.7217 16.7902 62.6618 16.2742 62.6618C15.5542 62.6618 14.9782 62.8237 14.5462 63.1478C14.1262 63.4598 13.9162 63.8797 13.9162 64.4077ZM38.2456 66.0457C37.7416 66.4177 37.2136 66.6998 36.6616 66.8918C36.1216 67.0717 35.5276 67.1618 34.8796 67.1618C34.2316 67.1618 33.6196 67.0417 33.0436 66.8018C32.4796 66.5618 31.9876 66.2318 31.5676 65.8118C31.1596 65.3918 30.8356 64.8997 30.5956 64.3358C30.3556 63.7598 30.2356 63.1418 30.2356 62.4818C30.2356 61.8337 30.3496 61.2277 30.5776 60.6637C30.8176 60.0998 31.1356 59.6077 31.5316 59.1878C31.9276 58.7677 32.3956 58.4378 32.9356 58.1978C33.4876 57.9577 34.0696 57.8377 34.6816 57.8377C35.2816 57.8377 35.8396 57.9577 36.3556 58.1978C36.8836 58.4378 37.3336 58.7677 37.7056 59.1878C38.0896 59.6077 38.3896 60.0998 38.6056 60.6637C38.8336 61.2277 38.9476 61.8337 38.9476 62.4818V62.8958H31.5496C31.6456 63.7837 32.0116 64.5218 32.6476 65.1097C33.2836 65.6978 34.0456 65.9918 34.9336 65.9918C35.4016 65.9918 35.8576 65.9197 36.3016 65.7757C36.7456 65.6318 37.1176 65.4277 37.4176 65.1637L38.2456 66.0457ZM34.6456 59.0078C33.8656 59.0078 33.1876 59.2718 32.6116 59.7998C32.0476 60.3278 31.7056 61.0057 31.5856 61.8337H37.6156C37.4956 61.0417 37.1536 60.3758 36.5896 59.8358C36.0376 59.2837 35.3896 59.0078 34.6456 59.0078ZM46.1738 54.3997H41.0618V66.9997H46.3898C47.6738 66.9997 48.7058 66.6817 49.4858 66.0457C50.2778 65.3978 50.6738 64.5337 50.6738 63.4538C50.6738 62.7337 50.4518 62.1097 50.0078 61.5817C49.5758 61.0418 48.9818 60.6577 48.2258 60.4297C48.8258 60.1777 49.2938 59.8117 49.6298 59.3317C49.9778 58.8517 50.1518 58.2878 50.1518 57.6397C50.1518 56.6558 49.7918 55.8698 49.0718 55.2817C48.3518 54.6937 47.3858 54.3997 46.1738 54.3997ZM42.4478 55.6058H46.1018C46.9178 55.6058 47.5658 55.8037 48.0458 56.1997C48.5378 56.5838 48.7838 57.0998 48.7838 57.7477C48.7838 58.3958 48.5378 58.9178 48.0458 59.3138C47.5658 59.6978 46.9178 59.8897 46.1018 59.8897H42.4478V55.6058ZM48.4418 65.1458C47.9018 65.5778 47.1818 65.7937 46.2818 65.7937H42.4478V61.0417H46.2818C47.1818 61.0417 47.9018 61.2578 48.4418 61.6898C48.9938 62.1217 49.2698 62.6978 49.2698 63.4177C49.2698 64.1377 48.9938 64.7137 48.4418 65.1458ZM55.4839 67.1618C54.4999 67.1618 53.6959 66.9098 53.0719 66.4057C52.4599 65.9017 52.1539 65.2477 52.1539 64.4437C52.1539 63.6038 52.4779 62.9377 53.1259 62.4457C53.7738 61.9417 54.6499 61.6898 55.7539 61.6898C56.2339 61.6898 56.6959 61.7437 57.1399 61.8517C57.5959 61.9598 58.0159 62.1097 58.3999 62.3018V61.1138C58.3999 60.3937 58.1959 59.8537 57.7879 59.4938C57.3799 59.1217 56.7859 58.9357 56.0059 58.9357C55.5619 58.9357 55.1119 59.0018 54.6559 59.1338C54.2119 59.2537 53.7199 59.4518 53.1799 59.7277L52.6759 58.7018C53.3239 58.3898 53.9239 58.1618 54.4759 58.0177C55.0279 57.8737 55.5799 57.8018 56.1319 57.8018C57.2719 57.8018 58.1479 58.0718 58.7599 58.6117C59.3839 59.1517 59.6959 59.9258 59.6959 60.9338V66.9997H58.3999V66.1178C57.9919 66.4658 57.5419 66.7298 57.0499 66.9098C56.5699 67.0778 56.0479 67.1618 55.4839 67.1618ZM53.4319 64.4077C53.4319 64.9118 53.6419 65.3258 54.0619 65.6497C54.4939 65.9617 55.0459 66.1178 55.7179 66.1178C56.2579 66.1178 56.7499 66.0338 57.1939 65.8658C57.6379 65.6977 58.0399 65.4337 58.3999 65.0737V63.3818C58.0279 63.1297 57.6259 62.9497 57.1939 62.8418C56.7739 62.7217 56.3059 62.6618 55.7899 62.6618C55.0699 62.6618 54.4939 62.8237 54.0619 63.1478C53.6419 63.4598 53.4319 63.8797 53.4319 64.4077ZM61.9211 57.9818V66.9997H63.2531V60.8257C63.4811 60.2257 63.8051 59.7697 64.2251 59.4577C64.6451 59.1338 65.1311 58.9717 65.6831 58.9717C65.8391 58.9717 65.9951 58.9897 66.1511 59.0257C66.3071 59.0498 66.4631 59.0858 66.6191 59.1338V57.9098C66.4871 57.8618 66.3551 57.8317 66.2231 57.8197C66.0911 57.7957 65.9411 57.7837 65.7731 57.7837C65.2211 57.7837 64.7291 57.9157 64.2971 58.1797C63.8651 58.4318 63.5171 58.7918 63.2531 59.2598V57.9818H61.9211Z" fill="black"/>
</g>
<defs>
<clipPath id="clip0">
<rect width="67" height="67" fill="white"/>
</clipPath>
</defs>
</svg>
