<svg width="202" height="92" viewBox="0 0 202 92" fill="none" xmlns="http://www.w3.org/2000/svg">
<path fill-rule="evenodd" clip-rule="evenodd" d="M103.24 28.7214C103.24 29.9583 102.237 30.9612 101 30.9612C99.7631 30.9612 98.7603 29.9583 98.7603 28.7214V18.3542C98.7603 17.1173 99.7631 16.1145 101 16.1145C102.237 16.1145 103.24 17.1173 103.24 18.3542V28.7214Z" fill="black"/>
<path fill-rule="evenodd" clip-rule="evenodd" d="M123.318 23.6821C124.192 24.5563 124.193 25.9744 123.318 26.8492C122.881 27.2866 122.309 27.5053 121.734 27.5053C121.16 27.5053 120.588 27.2866 120.151 26.8492L113.239 19.9376C112.365 19.0634 112.365 17.6452 113.239 16.7704C114.114 15.8959 115.532 15.8958 116.406 16.7705L123.318 23.6821Z" fill="black"/>
<path fill-rule="evenodd" clip-rule="evenodd" d="M81.8492 26.8492L81.849 26.8494C81.4119 27.2869 80.8403 27.5053 80.2656 27.5053C79.6909 27.5053 79.1194 27.2869 78.6823 26.8494L78.6819 26.8491C77.8074 25.9749 77.8073 24.5567 78.682 23.682L85.5935 16.7705L85.5936 16.7704C86.4678 15.8959 87.8859 15.8958 88.7607 16.7705L88.7608 16.7706C89.6353 17.6448 89.6355 19.063 88.7607 19.9377L81.8492 26.8492Z" fill="black"/>
<path d="M201 42.5442C201 36.9468 196.446 32.393 190.849 32.393C189.954 32.393 189.109 32.4427 188.298 32.5239C188.011 32.4401 187.708 32.393 187.393 32.393C182.731 32.393 175.667 28.2017 167.489 23.3485C151.803 14.0401 130.32 1.2915 101 1.2915C71.6803 1.2915 50.197 14.0401 34.5106 23.3485C26.3322 28.2017 19.2687 32.393 14.6069 32.393C14.292 32.393 13.9883 32.4401 13.7006 32.5239C12.8907 32.4427 12.0458 32.393 11.1512 32.393C5.55378 32.393 1 36.9468 1 42.5442C1 48.0483 5.40432 52.5403 10.8734 52.6885L23.257 77.4561C27.3438 85.6306 35.5603 90.7088 44.6998 90.7088H157.3C166.439 90.7088 174.656 85.6306 178.743 77.4561L191.127 52.6885C196.596 52.5407 201 48.0483 201 42.5442ZM37.8168 28.9204C52.8583 19.9952 73.4579 7.77099 101 7.77099C128.542 7.77099 149.142 19.9952 164.183 28.9204C169.24 31.9209 173.722 34.5796 177.79 36.393C176.98 36.9459 176.274 37.4846 175.666 37.952C173.906 39.304 173.906 39.304 172.86 39.304C171.812 39.304 171.812 39.304 170.05 37.9494C167.344 35.8716 162.816 32.393 154.87 32.393C146.924 32.393 142.398 35.8734 139.692 37.9533C137.935 39.3045 137.935 39.3045 136.892 39.3045C135.856 39.3045 135.856 39.3045 134.101 37.9537C131.397 35.8738 126.873 32.393 118.93 32.393C110.99 32.393 106.466 35.8708 103.755 37.9541C102.001 39.3045 102.001 39.3045 100.959 39.3045C99.9197 39.3045 99.9197 39.3045 98.1663 37.955C95.4626 35.8747 90.9369 32.393 82.9927 32.393C75.0484 32.393 70.5227 35.8747 67.8181 37.9554C66.0648 39.3045 66.0648 39.3045 65.0255 39.3045C63.9875 39.3045 63.9875 39.3045 62.2324 37.9537C59.5292 35.8738 55.0047 32.393 47.06 32.393C39.114 32.393 34.5909 35.8751 31.8864 37.9572C30.1361 39.3045 30.1361 39.3045 29.1015 39.3045C28.0687 39.3045 28.0687 39.3045 26.3205 37.958C25.7136 37.4902 25.0091 36.9511 24.2004 36.3973C28.2708 34.5844 32.7564 31.9235 37.8168 28.9204ZM172.948 74.5585C169.965 80.5235 163.969 84.2289 157.3 84.2289H44.7002C38.0311 84.2289 32.0354 80.523 29.0527 74.558L20.8445 58.1425C23.0821 58.9982 25.7909 59.6068 29.1015 59.6068C37.0458 59.6068 41.5689 56.1248 44.2708 54.0444C46.0238 52.6954 46.0238 52.6954 47.06 52.6954C48.0998 52.6954 48.0998 52.6954 49.8549 54.0462C52.5581 56.1261 57.0825 59.6068 65.0255 59.6068C72.9702 59.6068 77.4955 56.1252 80.2 54.0444C81.9529 52.6954 81.9529 52.6954 82.9927 52.6954C84.0324 52.6954 84.0324 52.6954 85.7858 54.0449C88.4899 56.1252 93.0151 59.6068 100.96 59.6068C108.9 59.6068 113.424 56.1291 116.135 54.0457C117.889 52.6954 117.889 52.6954 118.93 52.6954C119.968 52.6954 119.968 52.6954 121.721 54.0444C124.423 56.1248 128.946 59.6068 136.892 59.6068C144.837 59.6068 149.364 56.1265 152.069 54.0466C153.826 52.6954 153.826 52.6954 154.869 52.6954C155.917 52.6954 155.917 52.6954 157.679 54.05C160.385 56.1287 164.914 59.6068 172.86 59.6068C176.191 59.6068 178.915 58.9917 181.163 58.1282L172.948 74.5585ZM190.849 46.2159C189.734 46.2159 188.832 46.3516 188.041 46.5896C188.018 46.5969 187.995 46.6025 187.972 46.6103C186.492 47.0708 185.409 47.8993 184.089 48.9127C181.774 50.6915 178.603 53.1274 172.86 53.1274C167.115 53.1274 163.943 50.6906 161.625 48.9101C159.59 47.3459 158.119 46.2159 154.869 46.2159C151.622 46.2159 150.153 47.3464 148.119 48.9105C145.805 50.6902 142.635 53.1274 136.892 53.1274C131.151 53.1274 127.985 50.6898 125.673 48.9096C123.641 47.3455 122.172 46.2159 118.93 46.2159C115.683 46.2159 114.215 47.3468 112.178 48.9144C109.865 50.6924 106.698 53.1274 100.959 53.1274C95.219 53.1274 92.0501 50.6893 89.7369 48.9096C87.705 47.3455 86.2367 46.2159 82.9927 46.2159C79.7486 46.2159 78.2803 47.3459 76.2488 48.9092C73.9352 50.6893 70.7663 53.1274 65.0259 53.1274C59.2873 53.1274 56.1192 50.6902 53.8047 48.9096C51.7728 47.3455 50.3045 46.2159 47.0605 46.2159C43.8194 46.2159 42.3516 47.3459 40.3192 48.9101C38.0065 50.6898 34.8402 53.1274 29.1015 53.1274C23.3616 53.1274 20.1974 50.6893 17.8821 48.9053C16.5737 47.8984 15.4968 47.0742 14.0311 46.6138C14.0073 46.6055 13.9832 46.5995 13.959 46.5922C13.1685 46.3524 12.2665 46.2159 11.1512 46.2159C9.12657 46.2159 7.47948 44.5688 7.47948 42.5442C7.47948 40.5196 9.12657 38.8725 11.1512 38.8725C16.8911 38.8725 20.0553 41.3105 22.3663 43.0915C24.3961 44.6548 25.8631 45.7839 29.1015 45.7839C32.3408 45.7839 33.8078 44.6548 35.8415 43.0898C38.1533 41.3101 41.3197 38.8725 47.0605 38.8725C52.8009 38.8725 55.9689 41.3097 58.2829 43.0902C60.3149 44.6544 61.7831 45.7839 65.0255 45.7839C68.27 45.7839 69.7378 44.6539 71.7693 43.0906C74.0829 41.3105 77.2518 38.8725 82.9922 38.8725C88.7326 38.8725 91.9015 41.3105 94.2147 43.0902C96.2467 44.6544 97.7149 45.7839 100.959 45.7839C104.206 45.7839 105.674 44.6531 107.711 43.0855C110.024 41.3075 113.191 38.8725 118.93 38.8725C124.668 38.8725 127.836 41.3097 130.151 43.0902C132.183 44.6539 133.651 45.7839 136.892 45.7839C140.139 45.7839 141.608 44.6535 143.642 43.0893C145.956 41.3096 149.127 38.8725 154.869 38.8725C160.614 38.8725 163.786 41.3092 166.104 43.0902C168.139 44.6544 169.61 45.7839 172.86 45.7839C176.108 45.7839 177.578 44.6539 179.617 43.0872C181.933 41.3084 185.104 38.8725 190.848 38.8725C192.873 38.8725 194.52 40.5196 194.52 42.5442C194.52 44.5688 192.874 46.2159 190.849 46.2159Z" fill="black" stroke="white" stroke-width="2"/>
</svg>
