<?xml version="1.0" encoding="utf-8"?>
<!-- Generator: Adobe Illustrator 23.0.1, SVG Export Plug-In . SVG Version: 6.00 Build 0)  -->
<svg version="1.1" id="Layer_1" xmlns="http://www.w3.org/2000/svg" xmlns:xlink="http://www.w3.org/1999/xlink" x="0px" y="0px"
	 viewBox="0 0 100 100" style="enable-background:new 0 0 100 100;" xml:space="preserve">
<path d="M83.8,81.7l-5.2-48.9c-0.1-1-1-1.8-2-1.8h-4.7C71.1,16.5,61.6,5,50,5S28.9,16.5,28.1,31h-4.7c-1,0-1.9,0.8-2,1.8l-5.2,48.9
	c-0.4,3.4,0.7,6.8,3,9.3c2.3,2.5,5.5,4,8.9,4h43.8c3.4,0,6.7-1.4,8.9-4S84.2,85.1,83.8,81.7z M67.9,31h-7c-0.2-7.6-1.5-15.1-4-20.1
	C63,14.3,67.4,21.9,67.9,31z M50,9c2.7,0,6.6,8.5,7,22H43C43.4,17.5,47.3,9,50,9z M43,10.9c-2.4,5-3.8,12.5-4,20.1h-7
	C32.6,21.9,37,14.3,43,10.9z M77.8,88.3C76.3,90,74.1,91,71.9,91H28.1c-2.3,0-4.4-1-5.9-2.7c-1.5-1.7-2.2-3.9-2-6.2l5-47.2h49.6
	l5,47.2C80.1,84.4,79.3,86.7,77.8,88.3z M56.7,50c-2.4-0.1-4.9,0.7-6.7,2.3c-1.7-1.4-3.9-2.3-6.2-2.3c-0.2,0-0.4,0-0.6,0
	c-3.4,0.2-6.5,2.8-7.7,6.4c-1.4,4.3,0.3,8.9,4.5,12.4l8.7,6.8c0.4,0.3,0.8,0.4,1.2,0.4s0.9-0.1,1.2-0.4l8.7-6.8
	c4.2-3.4,5.9-8,4.5-12.3C63.3,52.8,60.2,50.2,56.7,50z M57.4,65.6L50,71.5l-7.4-5.8c-2.9-2.4-4.1-5.3-3.2-8c0.7-2,2.3-3.5,4.1-3.6
	c0.1,0,0.2,0,0.3,0c1.8,0,3.5,0.9,4.5,2.4c0.4,0.5,1,0.8,1.6,0.8s1.3-0.3,1.6-0.8c1.1-1.6,2.9-2.5,4.9-2.4c1.8,0.1,3.5,1.6,4.1,3.6
	C61.5,60.3,60.3,63.2,57.4,65.6z"/>
</svg>
