<?xml version="1.0" encoding="utf-8"?>
<!-- Generator: Adobe Illustrator 21.0.2, SVG Export Plug-In . SVG Version: 6.00 Build 0)  -->
<svg version="1.1" id="Layer_1" xmlns="http://www.w3.org/2000/svg" xmlns:xlink="http://www.w3.org/1999/xlink" x="0px" y="0px"
	 viewBox="0 0 100 100" style="enable-background:new 0 0 100 100;" xml:space="preserve">
<path d="M50,5C25.1,5,5,25.1,5,50c0,24.9,20.1,45,45,45s45-20.1,45-45C95,25.1,74.9,5,50,5z M50,89c-21.5,0-39-17.5-39-39
	s17.5-39,39-39s39,17.5,39,39S71.5,89,50,89z M73,67.3c0.8,0.8,0.8,2,0,2.8c-6.1,6.1-14.2,9.2-22.3,9.2c-8.1,0-16.1-3.1-22.3-9.2
	c-0.8-0.8-0.8-2,0-2.8c0.8-0.8,2-0.8,2.8,0c10.7,10.7,28.2,10.7,38.9,0C71,66.6,72.2,66.6,73,67.3z M29,57c-3.3,0-6-3.1-6-7
	c0-3.9,2.7-7,6-7s6,3.1,6,7C35,53.9,32.3,57,29,57z M77,50c0,3.9-2.7,7-6,7s-6-3.1-6-7c0-3.9,2.7-7,6-7S77,46.1,77,50z"/>
</svg>
